<svg id="圖層_1" data-name="圖層 1" xmlns="http://www.w3.org/2000/svg" viewBox="0 0 1000 1013.01"><defs><style>.cls-1{fill:#fff;}</style></defs><path d="M102.81,204.26c26.14,22.53-46.68,29.61-59.62,34.53C16.43,221.59,84,186,102.81,204.26Z"/><path d="M137.89,171.54c-5.13-.09-11.28-.38-16-2.66-.44-.22-5.45-3.18-5.89-3.42-.7-.38-2.3-1.34-3.64-2.19-1.91-1.21-4.2-2.27-4.85-4.82,15.9-22.91,60.5-19.65,72.05,6.53,7.42,14.22-10.05,2.71-18.72,6.32C154.29,173.51,146.91,173.26,137.89,171.54Z"/><path d="M43,247.85c3.9-13.49,31.33-7.22,42.6-15.22C165.44,198.55,63.7,300.14,43,247.85Z"/><path d="M156,199.32c-36.63,15.74-69.57-42.35-44.55-30.1,16,13.43,37.26,13.54,53.53,5.07C195.83,171.32,172.32,198,156,199.32Z"/><path class="cls-1" d="M102.81,204.26l-.3-.16Z"/><path class="cls-1" d="M110.74,192.39l.31-.14Z"/><path d="M603.38,204.26c26.14,22.53-46.68,29.61-59.62,34.53C517,221.59,584.55,186,603.38,204.26Z"/><path d="M638.46,171.54c-5.13-.09-11.28-.38-16-2.66-.45-.22-5.46-3.18-5.9-3.42-.69-.38-2.3-1.34-3.63-2.19-1.91-1.21-4.21-2.27-4.86-4.82C624,135.54,668.6,138.8,680.16,165c7.42,14.22-10,2.71-18.73,6.32C654.86,173.51,647.49,173.26,638.46,171.54Z"/><path d="M543.55,247.85c3.89-13.49,31.33-7.22,42.59-15.22C666,198.55,564.28,300.14,543.55,247.85Z"/><path d="M656.53,199.32C619.91,215.06,587,157,612,169.22c16,13.43,37.26,13.54,53.53,5.07C696.4,171.32,672.89,198,656.53,199.32Z"/><path class="cls-1" d="M603.38,204.26l-.3-.16Z"/><path class="cls-1" d="M611.31,192.39l.31-.14Z"/><path d="M339.32,710.07c26.14,22.53-46.68,29.61-59.62,34.53C252.94,727.39,320.49,691.81,339.32,710.07Z"/><path d="M374.4,677.35c-5.13-.1-11.28-.39-16-2.67-.44-.22-5.45-3.17-5.89-3.41-.7-.38-2.3-1.34-3.64-2.19-1.91-1.21-4.2-2.27-4.85-4.82,15.9-22.92,60.5-19.65,72,6.52,7.42,14.22-10,2.71-18.72,6.33C390.8,679.32,383.42,679.06,374.4,677.35Z"/><path d="M279.48,753.66c3.9-13.49,31.33-7.22,42.6-15.23C402,704.36,300.21,806,279.48,753.66Z"/><path d="M392.47,705.12c-36.63,15.75-69.57-42.34-44.55-30.1,15.95,13.43,37.26,13.55,53.53,5.08C432.34,677.12,408.83,703.75,392.47,705.12Z"/><path class="cls-1" d="M339.32,710.07l-.3-.16Z"/><path class="cls-1" d="M347.25,698.2l.31-.14Z"/><path d="M839.89,710.07c26.14,22.53-46.68,29.61-59.62,34.53C753.52,727.39,821.06,691.81,839.89,710.07Z"/><path d="M875,677.35c-5.13-.1-11.28-.39-16-2.67-.45-.22-5.46-3.17-5.9-3.41-.69-.38-2.29-1.34-3.63-2.19-1.91-1.21-4.21-2.27-4.86-4.82,15.91-22.92,60.5-19.65,72.06,6.52,7.42,14.22-10,2.71-18.73,6.33C891.37,679.32,884,679.06,875,677.35Z"/><path d="M780.06,753.66c3.89-13.49,31.33-7.22,42.59-15.23C902.52,704.36,800.79,806,780.06,753.66Z"/><path d="M893,705.12c-36.62,15.75-69.56-42.34-44.55-30.1,16,13.43,37.26,13.55,53.53,5.08C932.91,677.12,909.4,703.75,893,705.12Z"/><path class="cls-1" d="M839.89,710.07l-.3-.16Z"/><path class="cls-1" d="M847.82,698.2l.31-.14Z"/></svg>