<svg id="main" xmlns="http://www.w3.org/2000/svg" viewBox="0 0 486.97 1271.46"><defs><style>.cls-1{fill:#fff;stroke:#000;stroke-miterlimit:10;stroke-width:5px;}</style></defs><line class="cls-1" x1="4" y1="860.04" x2="486.97" y2="860.04"/><line class="cls-1" x1="245.48" y1="618.55" x2="245.48" y2="1101.52"/><path d="M47.55,1157.54c0-6.67-.14-7.46-3.19-7.79l-2.25-.26a1.45,1.45,0,0,1,.14-2.25c4.8-.33,10.46-.59,16.78-.59s10.23.66,13.28,1.71c4.43,1.52,8.86,5,8.86,11.42,0,10.82-12,12.41-15.83,12.41-.87,0-1.52,0-2.32-.07a1.19,1.19,0,0,1-.22-1.78c6-1.72,7.26-5.61,7.26-10.49s-2.76-10.17-9.29-10.17c-2.69,0-2.83.73-2.83,3.37v27.85c0,6.14.43,6.67,3.7,7.13l2.32.33a1.35,1.35,0,0,1,0,2.24c-4.06-.13-7.62-.2-11.11-.2s-7,.07-10.89.2c-.79-.4-.94-1.91-.14-2.24l2-.33c3.27-.53,3.7-1,3.7-7.13Z"/><path d="M122.5,1169.48c-3,0-3,.07-3,1.92v9.5c0,6.14.43,6.73,3.7,7.13l2.32.26a1.75,1.75,0,0,1,0,2.31c-4.14-.13-7.77-.2-11-.2-3.49,0-7.12.07-10.82.2a1.75,1.75,0,0,1,0-2.31l1.74-.2c3.34-.39,3.7-1,3.7-7.19v-24.55c0-6.14-.36-6.8-3.7-7.19l-1.74-.2a1.75,1.75,0,0,1,0-2.31c3.56.13,7.33.2,10.82.2,3.26,0,6.89-.07,10.09-.2a1.75,1.75,0,0,1,0,2.31l-1.53.2c-3.12.39-3.55,1-3.55,7.19V1164c0,1.91.07,2,3,2h15.1c3.05,0,3.05-.07,3.05-2v-7.66c0-6.14-.37-6.67-3.71-7.13l-2-.26a1.75,1.75,0,0,1,0-2.31c4,.13,7.55.2,11,.2s6.9-.07,10.23-.2a1.73,1.73,0,0,1,0,2.31l-1.45.2c-3.34.46-3.77,1-3.77,7.19v24.55c0,6.14.43,6.6,3.77,7.13l1.75.26a1.75,1.75,0,0,1,0,2.31c-3.63-.13-7.19-.2-10.53-.2q-5.45,0-10.67.2a1.73,1.73,0,0,1,0-2.31l1.59-.2c3.34-.39,3.71-1,3.71-7.19v-9.5c0-1.85,0-1.92-3.05-1.92Z"/><path d="M231.92,1168.43c0,14.38-10.6,23-26.21,23-14.59,0-25.19-8.71-25.19-22.51,0-13.06,10.74-23.16,25.92-23.16S231.92,1155,231.92,1168.43Zm-26.06-19.6c-8.93,0-13.72,7.59-13.72,18.61,0,8,3.12,21,15,21,9.51,0,13.21-8.44,13.21-19.14C220.3,1158,214.86,1148.83,205.86,1148.83Z"/><path d="M300.47,1179.18c0,4.29,0,8.45.15,10.63-.51.79-2.54,1.52-4.29,1.52-.07,0-2.47-3.37-5.88-7.2l-16.77-18.87c-4.21-4.69-6.61-7.46-7.91-8.45-.37.66-.37,1.78-.37,4.23v12.8c0,5.34.29,10.29,1.09,12.08.66,1.38,2.33,1.84,4.21,2.11l2,.26a2,2,0,0,1,0,2.31c-3.92-.13-6.83-.2-9.73-.2-2.69,0-5.37.07-8.13.2a1.93,1.93,0,0,1,0-2.31l1.23-.2c2-.33,3.41-.79,4-2.17.8-1.79,1-6.74,1-12.08v-16.76c0-3.63-.07-4.69-.51-5.61-.58-1.13-1.59-1.92-4.14-2.25l-2-.26c-.51-.53-.43-2.11.29-2.31,3.41.13,7,.2,10,.2,2.47,0,4.58-.07,6.1-.2.73,3,5.45,8,12,15l6.1,6.53c3.19,3.43,5.3,5.74,7,7.26a8.66,8.66,0,0,0,.29-3v-9.11c0-5.34-.29-10.29-1.09-12.07-.65-1.39-2.25-1.85-4.21-2.12l-2-.26a1.93,1.93,0,0,1,0-2.31c3.92.13,6.75.2,9.73.2,2.68,0,5.3-.07,8.13-.2a2,2,0,0,1,0,2.31l-1.31.2c-1.89.26-3.27.79-3.92,2.18-.8,1.78-1.09,6.73-1.09,12.07Z"/><path d="M380.06,1168.43c0,14.38-10.6,23-26.21,23-14.6,0-25.2-8.71-25.2-22.51,0-13.06,10.75-23.16,25.92-23.16S380.06,1155,380.06,1168.43ZM354,1148.83c-8.93,0-13.72,7.59-13.72,18.61,0,8,3.12,21,15,21,9.51,0,13.21-8.44,13.21-19.14C368.44,1158,363,1148.83,354,1148.83Z"/><path d="M448.61,1179.18c0,4.29,0,8.45.14,10.63-.51.79-2.54,1.52-4.28,1.52-.08,0-2.47-3.37-5.88-7.2l-16.77-18.87c-4.22-4.69-6.61-7.46-7.92-8.45-.36.66-.36,1.78-.36,4.23v12.8c0,5.34.29,10.29,1.09,12.08.65,1.38,2.32,1.84,4.21,2.11l2,.26a1.93,1.93,0,0,1,0,2.31c-3.92-.13-6.82-.2-9.73-.2-2.68,0-5.37.07-8.13.2a2,2,0,0,1,0-2.31l1.24-.2c2-.33,3.41-.79,4-2.17.8-1.79,1-6.74,1-12.08v-16.76c0-3.63-.08-4.69-.51-5.61-.58-1.13-1.6-1.92-4.14-2.25l-2-.26c-.51-.53-.44-2.11.29-2.31,3.41.13,7,.2,10,.2,2.46,0,4.57-.07,6.09-.2.73,3,5.45,8,12,15l6.1,6.53c3.2,3.43,5.3,5.74,7,7.26a8.66,8.66,0,0,0,.29-3v-9.11c0-5.34-.29-10.29-1.09-12.07-.65-1.39-2.25-1.85-4.21-2.12l-2-.26a2,2,0,0,1,0-2.31c3.92.13,6.75.2,9.73.2,2.69,0,5.3-.07,8.13-.2a1.93,1.93,0,0,1,0,2.31l-1.3.2c-1.89.26-3.27.79-3.93,2.18-.79,1.78-1.08,6.73-1.08,12.07Z"/><path d="M81.78,1227.51a88.68,88.68,0,0,0,.79,10.29,1.81,1.81,0,0,1-2.51.46c-1.78-6.14-6-9.43-12.4-9.43-7.33,0-15.18,6.26-15.18,19.4s7.59,20.19,15.51,20.19,11.68-5.74,13.46-10.23a1.89,1.89,0,0,1,2.51.46c-.47,4.89-1.59,8.85-2.51,10.36-3.57,1-8.25,2.45-13.4,2.45-6.47,0-13.06-1.52-17.75-5a20.71,20.71,0,0,1-8.38-17.29,21.82,21.82,0,0,1,8-17.49c4.69-3.89,11.42-5.87,18.28-5.87S79.8,1227.37,81.78,1227.51Z"/><path d="M183.06,1255.49c-1.58,0-1.78.06-2.18,1.32l-2.57,7.65a7.56,7.56,0,0,0-.46,2.38c0,.39.85.79,2.7,1.12l2,.33c.4.46.53,2-.13,2.31-2.31-.13-4.69-.13-7.46-.2-2.24,0-3.76.2-6.8.2-.72-.4-.66-1.78-.19-2.31l1.78-.2c1.58-.2,2.9-.73,4-3.3s2.38-5.81,4.16-10.56l6-16.1c1.51-4.16,2.64-6.47,2.44-8.38,3.17-.73,5.61-4,5.74-4,.86,0,1.25.33,1.52,1.32.53,1.91,1.32,4.35,3,9l9,25.87c1.39,4,2,5.48,4.42,5.87l2.51.4c.4.33.53,1.91-.06,2.31-3.17-.13-6.73-.2-10.17-.2s-5.87.07-8.91.2a1.51,1.51,0,0,1-.13-2.31l2.11-.33c1.52-.27,1.79-.73,1.79-1.12a28.45,28.45,0,0,0-1.26-4.49l-1.78-5.67c-.33-1.06-.86-1.19-3.17-1.19Zm7.52-3.5c1.52,0,1.85-.2,1.32-1.91l-1.71-5.35c-.93-2.84-2.12-6.4-2.71-7.79-.53,1.52-1.85,5.08-2.84,8.12l-1.65,5c-.59,1.78-.26,2,1.39,2Z"/><path d="M312.45,1244.53c0,1.78.07,2,1.85,2h5.08c3.5,0,4.23-.46,4.89-3.69l.33-1.59a2,2,0,0,1,2.5.07c-.13,2.11-.19,4.55-.19,7.06s.06,4.88.19,6.86a2,2,0,0,1-2.5.07l-.33-1.59c-.66-3.16-1.39-3.69-4.89-3.69H314.3c-1.78,0-1.85.2-1.85,2v8.91c0,6.14.4,6.66,3.37,7.06l2.44.33a2.11,2.11,0,0,1,0,2.31c-4.09-.13-7.33-.2-10.49-.2s-6.34.07-10.3.2a1.88,1.88,0,0,1,0-2.31l2.18-.33c3-.46,3.37-.92,3.37-7.06v-24.55c0-6.14-.4-6.73-3.37-7.19l-1.32-.2c-.59-.4-.59-2,.13-2.31,2.84.13,6.14.19,9.31.19h13.86c4.22,0,8-.06,8.91-.19,0,1.12,0,5.87.13,10.29-.27.73-1.72.79-2.51.27-.73-2.71-1.25-4.29-1.91-5.15-1.13-1.39-3.11-2.18-6.47-2.18h-5.15c-2.18,0-2.18.13-2.18,2.71Z"/><path d="M433.4,1244c0,1.85.06,2,1.85,2h4.55c3.43,0,4.22-.46,4.88-3.63l.33-1.65c.46-.52,2.11-.52,2.44.07-.13,2.11-.19,4.49-.19,7s.06,4.89.19,7a1.9,1.9,0,0,1-2.44.07l-.33-1.65c-.66-3.17-1.45-3.7-4.88-3.7h-4.55c-1.79,0-1.85.07-1.85,2v7.85c0,3,.26,5.15,1.05,6.27s2.11,1.71,6.93,1.71c5.74,0,8-.19,11.62-7.65a1.6,1.6,0,0,1,2.44.33,37.77,37.77,0,0,1-2.77,10.56c-3.5-.13-9.84-.2-15.25-.2h-8.58c-3.16,0-6.4.07-11.35.2a1.88,1.88,0,0,1,0-2.31l3.1-.46c3-.47,3.37-.86,3.37-6.93v-24.62c0-6-.4-6.4-3.37-7l-1.65-.33a1.66,1.66,0,0,1,.14-2.31c3.1.13,6.33.19,9.5.19h14c4.22,0,8-.06,8.84-.19.07,1,.53,5.8.86,10.23-.26.72-1.78.85-2.44.26a15.24,15.24,0,0,0-2.51-5.21c-1.25-1.26-3.23-2-6.47-2h-5.27c-2.18,0-2.18.13-2.18,2.57Z"/><path d="M105.11,712.36h-48c-2.76,8.52-9,17.26-22.22,23.38l-1.77-3.06C45.54,721.32,46.52,708,46.52,695.54V676.32l15.53,7.43h41.29l5.7-8.3L126,688.34a13,13,0,0,1-7.08,3.93v23.81c0,.65-4.13,4.59-13.76,4.59ZM37.87,651.85l-1.18-4.8H74.63V631.1l23.6,2.19c-.4,3.27-2.36,4.8-8.85,5.68v8.08H105.7l8.06-11.14,15.33,11.79c-1.57,3.06-3.93,4.15-9,4.15H89.38v15.3h12L109,656.22l15.14,11.58c-1.77,3.06-3.94,4.15-9.05,4.15H44.75l-1.18-4.8H74.63v-15.3ZM191.8,673.92l12.59,12.23c-1.38,2-3.54,2.4-8.06,2.62-4.33,6.77-10,12.45-16.52,17.7,11.8,3.93,25.56,6.11,39.91,7.42v2.41c-5.9,2-9.63,7.21-11,15.07-4.32-1.09-8.65-2.19-12.78-3.5L211.46,739c-1.57,3.06-3.93,4.37-9.24,4.37H180v56.14L211.66,798v4.36c-9.44,1.53-20,3.06-31.65,4.59v23.59c0,.88-5.11,4.59-13,4.59h-2.55v-26C134.4,812.85,97.83,817,52.42,821.81a8.92,8.92,0,0,1-5.51,4.36l-8.65-21.84c8.46,0,20.06-.22,33.82-.66V743.38H41.8l-1.37-4.8h144.1L193.18,727A104,104,0,0,1,167,714.55c-12.38,6.77-27.32,11.58-43.84,14.85l-1-3.71C136,721.32,148.55,715.64,159,708a71.15,71.15,0,0,1-16.51-22.07h-7.67l-1.37-5h47l7.08-7.21c-9-.66-9.63-4.59-9.63-16.17V646h-23c0,7.42,0,26.21-27.52,36l-1.77-3.28c13.57-9.83,14.94-21.4,14.94-31.23v-14.2l16.91,7.86h18.68l5.89-8.3,15.54,13.54a11.1,11.1,0,0,1-6.3,2.84v9.4c0,2.4,0,2.4,2.17,2.4h8.84a3.56,3.56,0,0,0,3.15-1.31c1.38-1.53,3.54-8.74,5.11-12.89h2l.19,13.33c4.13,1.74,5.11,2.62,5.11,5.24,0,5.24-3.93,8.52-14.54,8.52Zm-116,14.85H59.69v6.77a51.67,51.67,0,0,1-1.18,12h17.3ZM164.48,760V743.38H87.22V760Zm0,21V764.79H87.22V781Zm-77.26,4.8v17.48c22.21-.66,48.75-1.75,77.26-3.06V785.76Zm17.89-97H88.4v18.79h16.71Zm42.66-2.84a57.46,57.46,0,0,0,19.46,15.29,68.73,68.73,0,0,0,12.58-15.29Z"/><path d="M435.12,714.77l21.42,16.6c-1.57,3.06-3.93,4.37-9.63,4.37H373v73.18c0,13.54-3.34,23.37-27.72,26,0-13.54-8.65-15.94-29.09-17.91v-3.28H351c4.33,0,5.51-1.53,5.51-5v-73H272.93l-1.18-4.81h84.73V695.11l17.3,1.53C387.15,685.28,402.09,668,410.93,656H291l-1.18-4.81H411.92l10.81-11.36,17.89,18.57c-1.77,1.75-4.13,2.4-8.65,2.62-13.56,11.36-33.81,26.21-52.88,36l2.16.22c-.39,3.06-1.57,4.59-8.26,5.46v28.18h50.72Z"/><path d="M128.62,944.35l7.27-10.26,16.91,15.07c-1.37,1.75-3.73,3.06-7.86,3.93-.59,88.91-1.57,121.89-9.05,131.07-5.11,5.68-10,8.3-19.85,8.52,0-9.4-1-12.45-15.34-15.29l.2-3.72c5.11,0,13.57.44,17.5.44,3.34,0,4.52-.44,6.09-2.4,5.11-6.56,5.9-41.29,6.29-122.55h-17.1v9.39c-.2,48.28-6.29,104.86-43.25,138.28l-3-2.62c28.51-36,32.05-88.69,32.05-135.44v-9.61H83l-1-3.49v83.44c0,.44-3.74,5.24-13.76,5.24v-14H50v22.06c0,.22-1.37,5.68-13.36,5.68V914.65L51,922.07H66.5l6.09-8.73L89.3,926.66c-1.18,1.53-3.73,3.06-7.27,3.71v14h17.5V893.9l22.6,2.4c-.19,3.28-2,4.59-8.45,5.24v42.81ZM50,1015.57H68.27V926.88H50Zm146.27-99.4,16.51,13.55c-1,1.31-3.14,2.62-6.09,3.28v142.64c0,.22-4.33,5.68-15.14,5.68v-23.38h-22v25.56c0,.44-1.37,6.34-14.15,6.34V917.27l14.94,7.86h19.86Zm-26.74,137h22V929.94h-22Z"/><path d="M338.27,925.79a12,12,0,0,1-7.08,3.71v97.21c0,.44-4.33,5.46-14.55,5.46v-11.8H297.18v19.45s-1.57,6.11-14.16,6.11V913.34L298.36,921h16.51l6.29-9Zm-41.09,89.78h19.46V926H297.18Zm86.7-12.67c0,4.8-.2,9.61-.59,14l15.13-5.46a31.32,31.32,0,0,1,.79,3.06c-4.72,3-10.22,6.55-16.71,10.48-4.13,32.33-18.68,55.7-51.11,72.09l-2.17-2.84c21.43-15.29,32.64-34.08,37.16-59.42l-23.59,13.76a8,8,0,0,1-4.13,5.68l-10.22-18.78c7.86-2.19,22.41-7,39.71-13.11.59-6.12.79-12.67.79-19.44V987.39H341.22l-1.38-4.81h29.1V942.83H338.27L336.89,938h32.05V893.24l23.59,2.4c-.4,3.28-2.36,4.59-8.65,5.25Zm49.74,27.74c1.57-2.62,2.94-5.24,9.43-15.07l17.3,15.51c-1.57,3.27-4.13,4.37-9.43,4.37H418.48v54.82c0,.66-2.17,6.78-15.53,6.78V893.46l24,2.4c-.39,3.06-2.36,4.81-8.45,5.46v36.92h13.17l9-14.64,17.11,15.07C456,942,453.47,943,448.36,943H418.48v39.54h11.4l8.85-14.2L455.44,983c-1.77,3.06-4.13,4.37-9.44,4.37H418.48v43.25Z"/><path d="M77.92,433a80.49,80.49,0,0,0,20.42-29.29c7.09-17.12,16.9-32.77,29.95-44.4a73.45,73.45,0,0,1,24.45-14.81c3.7-1.33,8.49-.85,6.3-5.18l-.16-.27c-3.73-8.18-86.56-189.92-87.21-191.33-1-2.33-2.41-1.53-3.62-.79s-6.63,4-8.25,5.06c-2.6,1.65-1.95,2.54-.85,5,.56,1.24,58.36,128.08,77.83,170.81h0c.63,1.4.63,2.11-.47,2h0C115.47,327,90.64,335,70.38,353c-27.22,24.27-37.29,58.82-26.09,83.11,3.51,7.62,7.16,11.23,15.87,8A48.9,48.9,0,0,0,71,438.49,71.31,71.31,0,0,0,77.92,433Z"/><path d="M177.28,371.67c-.47-4.81-1.16-12.29-6.3-14.16-3.89-1.41-9.68.56-13.52,2a59.51,59.51,0,0,0-18.83,11.47c-10.39,9.27-19.08,22.69-25.41,38.05a97.65,97.65,0,0,1-25,35.64,93.45,93.45,0,0,1-8.67,6.83c-2.38,1.65-7.74,3-9.09,5.66-2.33,4.58,7,4.5,10.29,4.95,20.86,3,45.82-5,66.18-23.16C168.68,419.56,179.48,393.67,177.28,371.67Z"/><path d="M274.88,467.79c-3.88-1.41-9.68.56-13.52,2a59.65,59.65,0,0,0-18.82,11.47c-10.4,9.27-19.09,22.69-25.42,38a97.46,97.46,0,0,1-25,35.64,93.45,93.45,0,0,1-8.67,6.83c-2.39,1.65-7.75,3-9.1,5.66-2.32,4.58,7,4.5,10.3,5,20.86,3,45.81-5,66.18-23.16,21.7-19.35,32.5-45.24,30.3-67.24C280.72,477.14,280,469.66,274.88,467.79Z"/><path d="M159.5,260.09c-3.66,13.76-3.08,27.38,2.17,38.75,3.51,7.62,7.16,11.24,15.87,8a48.48,48.48,0,0,0,10.8-5.62,71.31,71.31,0,0,0,7-5.46,80.17,80.17,0,0,0,20.41-29.29c7.1-17.12,16.91-32.76,30-44.4a73.62,73.62,0,0,1,24.45-14.81c3.7-1.33,8.49-.85,6.3-5.17-.05-.1-.11-.19-.16-.28-3.73-8.18-86.57-189.91-87.21-191.33-1.05-2.33-2.41-1.53-3.62-.79s-6.63,4-8.25,5.06c-2.6,1.65-2,2.55-.85,5,.56,1.25,58.36,128.08,77.83,170.81h0c.63,1.4.63,2.12-.47,2h0c-20.8-2.83-45.63,5.13-65.89,23.2a98.59,98.59,0,0,0-20.2,24.85l-6.9-15.15c-1.06-2.33-2.42-1.54-3.63-.8s-6.63,4-8.25,5.06c-2.6,1.65-1.95,2.55-.84,5C148.08,235,152.54,244.83,159.5,260.09Z"/><path d="M435.3,416.33c-3.88-1.41-9.68.56-13.52,2A59.29,59.29,0,0,0,403,429.76c-10.4,9.27-19.09,22.69-25.42,38.05a97.5,97.5,0,0,1-25,35.63,91.45,91.45,0,0,1-8.67,6.83c-2.39,1.65-7.75,3-9.1,5.67-2.32,4.58,7.05,4.5,10.3,4.95,20.86,3,45.81-5,66.18-23.16,21.7-19.36,32.5-45.24,30.3-67.24C441.14,425.68,440.44,418.2,435.3,416.33Z"/><path d="M460,129q-11.62-25.44-40.4-40.49c-6.36-3.24-14.42-7-24.33-11.41a248.74,248.74,0,0,1-22.86-11.27,81.94,81.94,0,0,1-16.14-12.8,119.87,119.87,0,0,1-14.15-17.48c-.36-.53-.7-1.07-1.08-1.6-1.14-1.61-1.73-2.44-3.83-1.33s-3.72,1.92-4.93,2.55c-1.74.91-2.83,1.37-1.67,4.33,1.55,3.93,26,66.31,26,66.31l50.28,110.36c.64,1.4.66,2.14-.45,2,0,0,0,0-.06,0-18.05-2.51-39.15,3.13-57.67,16.46-19-41.63-34.2-75-34.44-75.53-1.06-2.33-2.42-1.54-3.63-.8s-6.63,4-8.25,5.06c-2.6,1.65-1.95,2.55-.84,5L336.51,245c-24.27,24-32.87,56.37-22.22,79.46,3.51,7.62,7.17,11.23,15.88,8A49.06,49.06,0,0,0,341,326.82a71.31,71.31,0,0,0,7-5.46,80.37,80.37,0,0,0,20.42-29.29c7.09-17.12,16.9-32.77,30-44.4a73.45,73.45,0,0,1,24.45-14.81c3.49-1.25,7.93-.91,6.61-4.47h0l-.08-.17a4.85,4.85,0,0,0-.23-.54l0-.06L373.3,105.37a19.84,19.84,0,0,1-1-2.25c-1.33-3.41.73-4.29,3-5,.73-.23,1.47-.39,2.22-.56a52.92,52.92,0,0,1,16.86-1,74.41,74.41,0,0,1,24.7,6.8,80.9,80.9,0,0,1,21.42,14.59,63.43,63.43,0,0,1,14.24,19.63,73.59,73.59,0,0,1,4.8,14.45,115.91,115.91,0,0,1,2.33,15.84c.45,5.45.74,11.63.82,18.54.11,6.27.21,11.89.3,16.77,0,1.06.23,1.29,1.13.89l1.74-.79c1-.46,1.13-.41,1.27-2Q471.76,154.75,460,129Z"/><path d="M441,245.84c-3.88-1.41-9.68.56-13.52,2a59.36,59.36,0,0,0-18.82,11.47c-10.4,9.27-19.09,22.69-25.42,38.05a97.65,97.65,0,0,1-25,35.64,94.65,94.65,0,0,1-8.66,6.83c-2.39,1.65-7.75,3-9.1,5.66-2.33,4.58,7.05,4.5,10.29,4.95a71.88,71.88,0,0,0,32.27-3.32c7.38,16.19,13.7,30.06,18.06,39.61.63,1.39.62,2.1-.48,1.95h-.05c-20.79-2.83-45.63,5.13-65.89,23.19-27.21,24.27-37.29,58.83-26.09,83.12,3.51,7.62,7.17,11.23,15.88,8a49.49,49.49,0,0,0,10.79-5.62,69,69,0,0,0,7-5.46,80.25,80.25,0,0,0,20.42-29.29c7.1-17.12,16.9-32.77,29.95-44.4a73.45,73.45,0,0,1,24.45-14.81c3.71-1.33,8.5-.86,6.3-5.18a1.91,1.91,0,0,0-.16-.27C422,395.14,411.37,372,397.26,341A100.22,100.22,0,0,0,417,327.24C438.68,307.89,449.48,282,447.28,260,446.81,255.19,446.12,247.71,441,245.84Z"/><path d="M288.36,220.22c-3.89-1.4-9.68.56-13.52,2A59.69,59.69,0,0,0,256,233.65c-10.39,9.27-19.08,22.69-25.41,38a97.48,97.48,0,0,1-25,35.64,93.45,93.45,0,0,1-8.67,6.83c-2.38,1.65-7.74,3-9.09,5.66a2.23,2.23,0,0,0-.1,2.28l52.93,116.08c.62,1.36.6,2.06-.49,1.91h-.05c-20.79-2.83-45.63,5.13-65.88,23.2-27.22,24.27-37.3,58.83-26.1,83.11,3.52,7.62,7.17,11.24,15.88,8a48.84,48.84,0,0,0,10.79-5.62,70.27,70.27,0,0,0,7-5.46A80.26,80.26,0,0,0,202.24,514c7.1-17.12,16.9-32.76,29.95-44.4a73.45,73.45,0,0,1,24.45-14.81c3.71-1.33,8.5-.85,6.31-5.17a2.61,2.61,0,0,0-.17-.28l-56.54-124c19,.19,40.31-7.9,58.11-23.77,21.71-19.35,32.51-45.24,30.31-67.24C294.19,229.57,293.5,222.09,288.36,220.22Z"/></svg>