<svg xmlns="http://www.w3.org/2000/svg" viewBox="0 0 150.13 215.87"><defs><style>.cls-1{fill:#231815;}</style></defs><g id="main"><path class="cls-1" d="M11,42.19a24.89,24.89,0,0,0,2.24-6.85H28.56v1c0,.47.18.6.75.6a6.33,6.33,0,0,0,2.43-.47.62.62,0,0,0,.5-.67v-.2c-.06-3.29-.06-4.36-.06-7.86,1.25-1,1.5-1.21,1.5-1.61a1.06,1.06,0,0,0-.56-.8l-2.88-2.49c-.81.94-1.06,1.21-1.81,2.15h-14a44.52,44.52,0,0,0-4.68-2c.06,1.89.13,2.83.13,4.51a68.58,68.58,0,0,1-.57,10.27A25,25,0,0,1,5.39,48.24l.75.74A23.63,23.63,0,0,0,11,42.19ZM22.87,26.54h5.69V33.8H22.87Zm-9,0h5.5V33.8h-6A59.29,59.29,0,0,0,13.88,26.54Z"/><path class="cls-1" d="M61.09,58.78c-3.81.4-3.81.4-13,1.14V43.4h6.24c.26,0,.44-.13.44-.27a.87.87,0,0,0-.25-.47,52.27,52.27,0,0,0-4.37-3.83c-1.31,1.28-1.68,1.68-3,3H16.57A17.13,17.13,0,0,1,12,41.39l.44,2.48a10.78,10.78,0,0,1,4.12-.47h2.81V61.2c-3.75.07-4.75.07-6.19.07-1.93,0-3.18,0-5.8-.14C8.64,66.77,9,67.65,9.57,67.65s.75-.54,1.07-2.36c15.17-1.14,15.17-1.14,33.34-3-.06,1.68-.06,3.76-.06,6.25,0,.53.25.73.87.73A15.35,15.35,0,0,0,47.66,69c.44-.2.57-.34.63-.74-.13-4.3-.13-4.3-.19-6.38,5.75-.74,7.81-1.07,13-2ZM44,60.26c-4.37.2-4.75.2-9.24.47-4.94.27-5.18.27-7.75.33l-3.62.07V56H44Zm0-5.78H23.37V49.71H44Zm0-6.31H23.37V43.4H44Z"/><path class="cls-1" d="M63.09,37.22c-6.18-.4-9.87-1.14-14.05-2.89a43.4,43.4,0,0,0,7.43-6.64c1.56-.2,2.18-.54,2.18-1.08,0-.27-.18-.54-.68-.94-1.56-1.27-2.06-1.68-3.69-2.89-1.06,1.15-1.37,1.48-2.43,2.69H38.61A10.68,10.68,0,0,1,35.42,25l.25,2.35A17.93,17.93,0,0,1,38.61,27h.69a24.16,24.16,0,0,0,5.12,7.06,42.68,42.68,0,0,1-11.74,5.77l.25.94c5.93-1.14,9.36-2.35,13.61-4.83,3.37,2.55,6.74,4.16,12.8,6.11.75-2.55,1.5-3.29,3.75-4Zm-17-4.36c-2.37-1.55-3.49-2.76-5.68-5.85H51.79A23.37,23.37,0,0,1,46.1,32.86Z"/><path class="cls-1" d="M39.61,20.16c1.44-2.08,1.93-3.82,2.31-8.39h6.87v7.59c0,2.28.19,2.35,7.74,2.35,4.75,0,5.93-.34,5.93-1.81,0-.54-.31-.94-.93-1.35-.94-.47-1-.67-1-2.68V10.36l-.75-.14c-.88,4.3-1.44,6.38-2.13,7.73-.31.74-.43.74-2.8.74-2.57,0-2.57,0-2.57-1V12.37c1.32-.53,1.88-.94,1.88-1.41,0-.27-.13-.47-.5-.74-1.19-1-1.56-1.34-2.87-2.28a24.64,24.64,0,0,0-2.19,2.28H42.42c-2-1.07-2.62-1.34-4.68-2.28.12,1.68.18,2.42.18,3.76,0,6.65-.75,8.87-4.12,12.36l.63.67A15,15,0,0,0,39.61,20.16Z"/><path class="cls-1" d="M13.07,19.9a15.63,15.63,0,0,1-4.31-.54l.5,2.42a26.9,26.9,0,0,1,3.81-.34h21c.13,0,.44-.34.44-.47a1.47,1.47,0,0,0-.25-.54,44.72,44.72,0,0,0-4-3.76C29.06,18,28.68,18.42,27.5,19.9H22.87V14.59H35.24c.37,0,.68-.2.68-.4s-.12-.27-.31-.61c-1.68-1.68-2.25-2.21-4.18-3.89-1.19,1.41-1.56,1.81-2.75,3.36H22.87V10.16C24.43,9.75,25,9.42,25,8.88s-.13-.74-6-1.34c.07,1.88.13,2.82.13,4.16v1.35H11a18,18,0,0,1-4.68-.54l.5,2.42A30.85,30.85,0,0,1,11,14.59h8.12V19.9Z"/><path class="cls-1" d="M145.7,37.09a.63.63,0,0,0,.62-.61,1.12,1.12,0,0,0-.25-.6c-2.68-2.55-3.49-3.29-6.3-5.71-1.94,2.28-2.56,3-4.37,5.37H119.66V28.63c2.25-1.08,2.56-1.35,2.56-1.82s-.44-.67-1.25-.87c-.12,0-.25-.07-.43-.07,3.93-2.48,5-3.36,11-8.32.56-.48,1.49-1.21,2.62-2.22,3.49-.4,3.56-.4,3.93-.74a.88.88,0,0,0,.38-.6c0-.34-.32-.68-1.07-1.28-2.31-1.88-3-2.49-5.62-4.37-1.31,1.48-1.68,1.95-2.93,3.56h-27.6a33.15,33.15,0,0,1-6.87-.67l.56,2.55a48.14,48.14,0,0,1,5.87-.33h28a73.15,73.15,0,0,1-10,12c-1.13-.27-2.12-.53-4.06-.87.37,3.36.37,3.36.37,9.74v1.27H95.49a35.06,35.06,0,0,1-6.86-.6l.68,2.48a51.19,51.19,0,0,1,6.18-.33h19.67V60.8c0,1.2-.12,1.34-.93,1.41l-14.3-.61-.13,1.21c6.31.67,7.93.94,9.31,1.61s2,1.48,2.87,4.17c3.18-.94,4.12-1.28,5.12-1.88a4.47,4.47,0,0,0,2.62-4.5V60.59l-.06-6.91V37.09Z"/><path class="cls-1" d="M24.6,106.83c-.06,7.12-.06,9.2-.31,14.64,0,.6.19.74,1.19.74a6.17,6.17,0,0,0,2.18-.41c.32-.13.38-.26.38-.67v-1.88h8.55v2.22c0,.54.25.8.81.8h.44c1.81-.06,2.31-.33,2.31-1.21-.06-4-.06-4-.06-8.46,0-7.38,0-7.38-.06-12.09C41.34,100,42,99.57,42,98.9c0-.2-.12-.4-.5-.67C40.34,97.29,40,97,38.72,96.08c-.69.67-1.44,1.41-2.19,2.29H31a27.19,27.19,0,0,0,3-5c2.44-.41,3-.68,3-1.21s-.06-.67-6.18-2.42c0,.47.06.94.06,1a51.69,51.69,0,0,1-1.06,7.59H28.23C26.6,97.36,26.1,97,24.54,96c.13,1.82.13,2.56.13,4V101C24.67,102.46,24.6,104.34,24.6,106.83ZM28,99.91h8.55V108H28Zm0,9.6h8.55v8.2H28Z"/><path class="cls-1" d="M58.57,103.6a1.07,1.07,0,0,0,.5-.6,1.64,1.64,0,0,0-.56-.94c-.5-.34-.94-.54-4.93-2.08a71.75,71.75,0,0,1-9.93,17.93,8.82,8.82,0,0,1-1.19.07h-.81c.63,2.62,1.19,4.83,1.25,5,.12.54.37.74.69.74.56,0,.87-.67,1-2.35a88,88,0,0,0,9-2.35l2.68-.74a12.53,12.53,0,0,1,1.06,2.89c.25.94.57,1.34.88,1.34,1.06,0,2.18-2.15,2.18-4s-1.49-3.49-7-7.38l-.56.4A51.45,51.45,0,0,1,55.7,117a48.48,48.48,0,0,1-8.06.73c-.49,0-1.43.07-2.43.07a118.83,118.83,0,0,0,11.18-14A4.89,4.89,0,0,0,58.57,103.6Z"/><path class="cls-1" d="M49.33,91.38a54.76,54.76,0,0,1-4.24,11.15,35.5,35.5,0,0,0-2.88-2.08l-.5.47a17.06,17.06,0,0,1,2.63,4.83A21.57,21.57,0,0,1,45.52,109c.25.94.5,1.28,1,1.28.88,0,1.69-1.68,1.69-3.49,0-1.14-.57-2-2.31-3.56a40.12,40.12,0,0,0,6.55-7.93c1.88-.06,2.75-.33,2.75-.94S54,93.13,49.33,91.38Z"/><path class="cls-1" d="M7.24,124.89c.63,0,.75-.33.94-2.41,3.37-1,9.8-3,11.55-3.7.32,1.28.44,2,.63,2.89s.43,1.28.93,1.28c1.07,0,2.13-1.89,2.13-3.63,0-1.14-.63-2.22-2.25-4a24.71,24.71,0,0,0-3.62-3.43l-.56.4a50.83,50.83,0,0,1,2.43,5.44c-5.93.54-9.05.74-9.37.81,3.19-3.09,7.37-8.73,11-14.84,1.94-.07,2.44-.2,2.44-.81s-.5-.94-2.75-2c-.56-.27-1.31-.61-2.37-1.14-1.69,4.7-5.81,12.42-10,18.87H6.37a14.1,14.1,0,0,1-1.62-.07C6.49,124.62,6.62,124.89,7.24,124.89Z"/><path class="cls-1" d="M19.73,93.87c0-.61-.5-.88-3.06-2-.56-.2-1.56-.61-2.74-1.14A55,55,0,0,1,9.3,102.33a25,25,0,0,0-3.87-2.49l-.68.67a25.48,25.48,0,0,1,4.62,7.66c.81,2,1.18,2.42,1.87,2.42s1.81-2,1.81-3.63c0-1.21-.5-1.95-2.56-3.69a50.64,50.64,0,0,0,6.75-8.53C19.17,94.67,19.73,94.47,19.73,93.87Z"/><path class="cls-1" d="M30,132.35l-.07,4.7-.31,13.1c0,.87.25,1.07,1.19,1.07a9.7,9.7,0,0,0,2.87-.4c.37-.2.5-.41.5-1-.06-5.51-.06-5.64-.13-7.59-.06-2.82-.06-4.77-.06-5.51v-6c4.94,6.38,8.12,9.27,14,12.62a50.26,50.26,0,0,0,9.43,4.24c1.06-3.09,1.81-4,3.81-4.84v-1a57.84,57.84,0,0,1-10.87-2.28,32.42,32.42,0,0,1-14.92-9.07H59c.5,0,.75-.13.75-.4a1.28,1.28,0,0,0-.19-.6,66.34,66.34,0,0,0-5.56-5c-1.75,1.95-2.31,2.55-4.18,4.5H34v-3.43c1.69-.67,2-.87,2-1.34s-.37-.74-3.37-1.07c-.69-.07-1.69-.21-3.06-.41a34.51,34.51,0,0,1,.25,4.23v2H12.24a25.64,25.64,0,0,1-5.87-.61l.5,2.62a34.43,34.43,0,0,1,5.37-.47H26.79a56.11,56.11,0,0,1-7.68,7.79,67.3,67.3,0,0,1-14.74,9.14l.31.94a49.3,49.3,0,0,0,11.49-4.77A51.07,51.07,0,0,0,30,132.35Z"/><path class="cls-1" d="M120.08,133.13l24.48,0c.5,0,.93-.27.94-.53a1,1,0,0,0-.19-.48c-2.37-2.08-3.18-2.75-5.74-5a56.27,56.27,0,0,0-3.57,4.43l-17.11,0v-3c1.87-.74,2.31-1.07,2.31-1.54s-1.06-.94-3.93-1.21c-.63-.07-1.63-.21-2.87-.34a18,18,0,0,1,.3,3.89v2.15l-18,0A44.18,44.18,0,0,1,89,131l.31,2.35c1.5-.14,4.5-.27,6.5-.27l15.55,0a42.64,42.64,0,0,1-7.94,7.51c-4.69,3.49-8.75,5.64-15.81,8.52l.5,1c6.87-2,10.12-3.28,14.18-5.49a49.4,49.4,0,0,0,12.5-9.52v3.7c0,5.37,0,5.37-.26,11.34.06.74.38,1,1.31,1,2.37,0,3-.2,3.25-1.13-.18-6.25-.18-6.25-.17-11.62v-5A48.86,48.86,0,0,0,130.18,144a40.19,40.19,0,0,0,12.61,5.66c.75-3,1.75-4,4.13-4.29v-1.08A47.61,47.61,0,0,1,131,140.53,30.74,30.74,0,0,1,120.08,133.13Z"/><path class="cls-1" d="M107.63,94.17l1-.14a4.59,4.59,0,0,0,1.06-.27.79.79,0,0,0,.37-.6c0-.54-.68-.87-3.31-1.75-.74-.27-1.93-.67-3.43-1.14a66.43,66.43,0,0,1-4.32,9c-3.94,6.71-6.5,10.27-10.32,14.29l.63.68a49.28,49.28,0,0,0,8.94-8.79l0,12.09c0,4.29-.07,5.77-.26,9.06a.79.79,0,0,0,.87.67,12.37,12.37,0,0,0,2.57-.33c.43-.2.62-.4.68-1.07V124l39.34,0c.31,0,.56-.2.56-.4a2,2,0,0,0-.25-.47c-2.19-2-2.93-2.49-5.24-4.3-1.5,1.54-1.94,2-3.31,3.62l-13.37,0v-6.38l18.23,0a.45.45,0,0,0,.5-.41,3.13,3.13,0,0,0-.12-.4,61.45,61.45,0,0,0-4.81-4.24c-1.31,1.48-1.68,2-2.87,3.49H119.85v-5.84l18.29,0c.32,0,.63-.2.63-.4a.87.87,0,0,0-.19-.47,49.84,49.84,0,0,0-4.93-4.24c-1.25,1.54-1.56,2-2.69,3.56l-11.11,0v-6l21.16,0c.32,0,.69-.27.69-.47a.9.9,0,0,0-.19-.47,56.78,56.78,0,0,0-5.48-4.84c-1.51,1.88-1.94,2.41-3.32,4.22h-14a17.91,17.91,0,0,0,1.81-1.54c2.82-2.62,2.82-2.62,4.13-3.76,2.56,0,3.31-.26,3.31-1s0-.61-6.93-2.77a40.86,40.86,0,0,1-4.13,9.07l-14.05,0c2.44-3.35,2.44-3.35,3.82-5.3A4.8,4.8,0,0,1,107.63,94.17ZM116,122.45l-13.86,0v-6.38l13.86,0Zm0-7.93H102.12v-5.84H116Zm0-13.36v6l-13.86,0v-6Z"/><polygon class="cls-1" points="75.53 77.4 75.53 2.8 74.6 2.8 74.6 77.4 0 77.4 0 78.33 74.6 78.33 74.6 152.93 75.53 152.93 75.53 78.33 150.13 78.33 150.13 77.4 75.53 77.4"/><path class="cls-1" d="M8.34,180.9c0,2.16,0,2.42,1.35,2.57l.56.06a.41.41,0,0,1,0,.51C9,184,8.36,184,7.53,184s-1.6,0-2.5.06a.38.38,0,0,1,0-.51l.43-.06c1.19-.17,1.23-.41,1.23-2.57v-7.59c0-1.74,0-2.09-1-2.19L4.94,171a.34.34,0,0,1,0-.51,33.09,33.09,0,0,1,4.06-.16,7.4,7.4,0,0,1,3.95.82,3.53,3.53,0,0,1,1.65,3.08,3.49,3.49,0,0,1-2.06,3.27,6.93,6.93,0,0,1-2.84.61c-.14-.06-.14-.36,0-.41,2.22-.41,3-1.66,3-3.45A3,3,0,0,0,9.45,171c-1.09,0-1.11.08-1.11.74Z"/><path class="cls-1" d="M31.93,177.34c-1,0-1,0-1,.66v2.9c0,2.16.1,2.45,1.26,2.57l.59.06c.13.08.08.45,0,.51-1.11,0-1.81-.06-2.61-.06s-1.58,0-2.38.06a.39.39,0,0,1,0-.51l.35-.06c1.16-.21,1.2-.41,1.2-2.57v-7.4c0-2.16-.15-2.51-1.22-2.59l-.53,0c-.12-.08-.08-.45,0-.51,1,0,1.71.06,2.59.06s1.5,0,2.38-.06c.13.06.17.43.05.51l-.39,0c-1.2.12-1.24.43-1.24,2.59v2.36c0,.64,0,.66,1,.66h5.88c1,0,1,0,1-.66V173.5c0-2.16,0-2.47-1.26-2.59l-.39,0c-.12-.08-.08-.45,0-.51,1,0,1.65.06,2.49.06s1.5,0,2.42-.06c.13.06.17.43,0,.51l-.44,0c-1.19.12-1.23.43-1.23,2.59v7.4c0,2.16,0,2.42,1.23,2.57l.5.06c.12.08.08.45,0,.51-1,0-1.69-.06-2.49-.06s-1.58,0-2.49.06a.4.4,0,0,1,0-.51l.39-.06c1.26-.21,1.26-.41,1.26-2.57V178c0-.62,0-.66-1-.66Z"/><path class="cls-1" d="M53.65,177.34A7.1,7.1,0,0,1,61,170.09a6.77,6.77,0,0,1,7.13,7A7,7,0,0,1,61,184.31,6.92,6.92,0,0,1,53.65,177.34Zm12.39.44c0-3.4-1.5-7.05-5.42-7.05-2.14,0-4.92,1.45-4.92,6,0,3,1.48,7,5.53,7C63.7,183.67,66,181.82,66,177.78Z"/><path class="cls-1" d="M91.86,180.49c0,.61,0,3.06.06,3.59,0,.13-.16.23-.39.23-.24-.35-.84-1.07-2.63-3.1l-4.77-5.43c-.55-.64-1.95-2.32-2.38-2.77h0a5.31,5.31,0,0,0-.1,1.33v4.48c0,1,0,3.64.37,4.26.12.22.53.35,1,.39l.64.06a.38.38,0,0,1,0,.51c-.93,0-1.64-.06-2.4-.06s-1.42,0-2.14.06a.36.36,0,0,1,0-.51l.55-.06c.47-.06.8-.19.91-.41a20.43,20.43,0,0,0,.26-4.24v-5.94a1.9,1.9,0,0,0-.45-1.48,2.27,2.27,0,0,0-1.27-.49l-.35,0a.35.35,0,0,1,0-.51c.86.06,2,.06,2.32.06a6.91,6.91,0,0,0,1-.06,28.43,28.43,0,0,0,3.51,4.52l2,2.24c1.42,1.58,2.43,2.73,3.4,3.72h0A2.16,2.16,0,0,0,91,180v-4.39c0-1,0-3.64-.41-4.26-.13-.18-.45-.31-1.28-.41l-.35,0c-.14-.12-.12-.45,0-.51.94,0,1.64.06,2.42.06s1.42,0,2.12-.06a.36.36,0,0,1,0,.51l-.29,0c-.66.1-1.07.27-1.15.43a16.58,16.58,0,0,0-.31,4.24Z"/><path class="cls-1" d="M104.53,177.34a7.11,7.11,0,0,1,7.32-7.25,6.76,6.76,0,0,1,7.13,7,7,7,0,0,1-7.13,7.17A6.93,6.93,0,0,1,104.53,177.34Zm12.4.44c0-3.4-1.5-7.05-5.43-7.05-2.13,0-4.91,1.45-4.91,6,0,3,1.48,7,5.53,7C114.59,183.67,116.93,181.82,116.93,177.78Z"/><path class="cls-1" d="M142.77,180.49c0,.61,0,3.06.06,3.59,0,.13-.16.23-.39.23-.24-.35-.84-1.07-2.63-3.1l-4.76-5.43c-.56-.64-2-2.32-2.39-2.77h0a5.31,5.31,0,0,0-.1,1.33v4.48c0,1,0,3.64.37,4.26.12.22.53.35,1.05.39l.63.06a.36.36,0,0,1,0,.51c-.92,0-1.64-.06-2.4-.06s-1.42,0-2.14.06a.37.37,0,0,1,0-.51l.55-.06c.48-.06.8-.19.91-.41a20.43,20.43,0,0,0,.26-4.24v-5.94a1.9,1.9,0,0,0-.45-1.48,2.27,2.27,0,0,0-1.27-.49l-.35,0c-.12-.12-.12-.43,0-.51.86.06,2,.06,2.32.06a6.91,6.91,0,0,0,.95-.06,28.43,28.43,0,0,0,3.51,4.52l2,2.24c1.41,1.58,2.42,2.73,3.39,3.72h0a2.16,2.16,0,0,0,.08-.87v-4.39c0-1,0-3.64-.41-4.26-.12-.18-.45-.31-1.28-.41l-.34,0c-.15-.12-.13-.45,0-.51.94,0,1.64.06,2.42.06s1.42,0,2.12-.06a.36.36,0,0,1,0,.51l-.29,0c-.66.1-1.07.27-1.15.43a16.58,16.58,0,0,0-.31,4.24Z"/><path class="cls-1" d="M12,207.09c.48,1,.93,1.92,1.42,2.82h0c.56-1,1.07-2,1.59-3.08L17,202.9c.92-1.87,1.52-3,1.56-3.94.7.06,1.13.06,1.54.06s1.19,0,1.83-.06a.44.44,0,0,1,0,.51l-.43,0c-1.29.12-1.46.51-1.44,2,0,2.18.06,6,.23,8.94.06,1,0,1.59,1,1.67l.66.06a.36.36,0,0,1,0,.51c-.84,0-1.68-.06-2.42-.06s-1.65,0-2.49.06a.37.37,0,0,1,0-.51l.59-.06c1-.1,1-.43,1-1.75l-.06-8.57h0c-.15.23-.93,1.87-1.34,2.67L15.3,208c-.92,1.81-1.85,3.74-2.22,4.69a.23.23,0,0,1-.2.08.26.26,0,0,1-.19-.08,43.33,43.33,0,0,0-1.81-4.11l-1.85-4c-.43-.95-.86-2-1.31-3h0c-.08,1.27-.15,2.46-.21,3.66s-.14,3.08-.14,4.83c0,1.52.12,1.85.92,1.91l.78.06c.15.12.13.45,0,.51-.69,0-1.5-.06-2.28-.06s-1.4,0-2.09.06a.4.4,0,0,1,0-.51l.46-.06c.86-.12,1.15-.25,1.27-1.69s.23-2.48.35-4.52c.1-1.7.19-3.45.23-4.58,0-1.3-.13-1.61-1.38-1.77l-.33,0a.39.39,0,0,1,.08-.51c.62,0,1.11.06,1.63.06s1,0,1.7-.06a7.87,7.87,0,0,0,1.07,3.39Z"/><path class="cls-1" d="M52.27,204.18c0-1.28,0-3.64-.39-4.26-.14-.25-.51-.39-1-.43l-.51,0a.37.37,0,0,1,0-.49c.78,0,1.54.06,2.34.06s1.42,0,2.16-.06a.35.35,0,0,1,0,.49l-.49,0a1.21,1.21,0,0,0-1,.49,18.27,18.27,0,0,0-.29,4.2v2.32c0,1.79-.28,3.68-1.44,4.91a5.38,5.38,0,0,1-3.92,1.5,5.88,5.88,0,0,1-3.85-1.13c-1.08-.9-1.6-2.4-1.6-4.85v-4.85c0-2.14,0-2.49-1.23-2.59l-.51,0c-.13-.08-.09-.43,0-.49,1,0,1.72.06,2.54.06s1.53,0,2.53-.06c.13.06.17.41,0,.49l-.49,0c-1.19.1-1.23.45-1.23,2.59v4.44c0,3.31,1,5.49,4.17,5.49,3,0,4.11-2.35,4.11-5.47Z"/><path class="cls-1" d="M78,212.91a6.36,6.36,0,0,1-3.2-.76,9.32,9.32,0,0,1-.56-2.88c.1-.14.41-.18.49-.06a3.75,3.75,0,0,0,3.54,3.06,2.33,2.33,0,0,0,2.57-2.36A3.1,3.1,0,0,0,79.13,207l-1.95-1.27A4.38,4.38,0,0,1,75,202.22c0-1.95,1.52-3.53,4.19-3.53a7.74,7.74,0,0,1,1.92.27,2.75,2.75,0,0,0,.71.12,8.73,8.73,0,0,1,.38,2.51c-.09.12-.42.18-.52.06a2.69,2.69,0,0,0-2.79-2.32,2.15,2.15,0,0,0-2.45,2.28,3.22,3.22,0,0,0,1.75,2.52l1.64,1a4.63,4.63,0,0,1,2.57,4C82.36,211.37,80.66,212.91,78,212.91Z"/><path class="cls-1" d="M107.28,202.14c0-2.18,0-2.53-1.25-2.63l-.51,0c-.13-.08-.09-.45,0-.51,1,0,1.72.06,2.59.06s1.52,0,2.55-.06c.12.06.16.43,0,.51l-.52,0c-1.21.1-1.25.45-1.25,2.63v7.32c0,2.18,0,2.46,1.25,2.61l.52.06c.12.08.08.45,0,.51-1,0-1.73-.06-2.55-.06s-1.57,0-2.59.06a.38.38,0,0,1,0-.51l.51-.06c1.21-.15,1.25-.43,1.25-2.61Z"/><path class="cls-1" d="M133.4,200.44a8.82,8.82,0,0,1,5.55-1.75,15.68,15.68,0,0,1,3.64.49,1.61,1.61,0,0,0,.58.08c0,.48.12,1.77.28,3a.42.42,0,0,1-.55.05c-.31-1.4-1.23-3-4.21-3-3.15,0-5.82,2-5.82,6.24s2.73,6.7,6.1,6.7a4.37,4.37,0,0,0,4.3-2.94.42.42,0,0,1,.53.09,7.59,7.59,0,0,1-1,2.81,4,4,0,0,0-.72.21,12.3,12.3,0,0,1-3.25.47,9,9,0,0,1-5.12-1.38,6.63,6.63,0,0,1-2.92-5.65A6.82,6.82,0,0,1,133.4,200.44Z"/></g></svg>