<svg xmlns="http://www.w3.org/2000/svg" viewBox="0 0 163.25 220.7"><defs><style>.cls-1{fill:#231815;}</style></defs><g id="main"><path class="cls-1" d="M42.71,101.34v-3a22.69,22.69,0,0,0-.2-2.9c6.66.94,7,1,7,1.74s-.6.87-2.62,1.37v2.82h8.75c1.88-2,1.88-2,4.3-4.41A52.48,52.48,0,0,1,66,101.85a2.14,2.14,0,0,1,.4.72c0,.29-.27.44-.74.44H46.88A22,22,0,0,0,47,105.9a.62.62,0,0,1-.4.65,11.89,11.89,0,0,1-2.62.29c-1,0-1.35-.21-1.35-.79,0-1.81,0-1.81.07-3H29.39c.06,1.66.06,1.66.06,3.11v.15a.7.7,0,0,1-.6.79,9.15,9.15,0,0,1-2.36.36c-.87,0-1.14-.21-1.14-.94V104.6a9.58,9.58,0,0,1,.07-1.59H15.12c-2.08,0-5.85.22-8.2.51l-.47-2.9a46.59,46.59,0,0,0,8.67.72h10.3a7.21,7.21,0,0,1-.07-1.3A28,28,0,0,0,25,94.91a24.49,24.49,0,0,0,2.69.21c3.3.29,4.24.58,4.24,1.38,0,.58-.47.86-2.55,1.52-.07,1-.07,1.66-.07,2.31a6.48,6.48,0,0,0,.07,1ZM27.64,122.76c0,.87.06,1.09.27,1.23a25.9,25.9,0,0,0,4.91.22c1,0,1.41-.07,1.54-.43a19.7,19.7,0,0,0,1.28-3.19l.68.15v2c.06.94.06,1,.2,1.09s.07.14,1.07.43a.94.94,0,0,1,.81,1c0,1.3-1.14,1.59-5.65,1.59-6,0-7.13-.15-7.94-.8-.2.58-.33.65-1.68,1.09v3h5.45c1.28-1.24,1.68-1.6,2.89-2.83,1.55,1.45,2,1.89,3.43,3.4.27.37.34.51.34.73s-.27.36-.74.36H23.13v4.49c6.73-.87,7.94-1,11.77-1.74l.34,1a204,204,0,0,1-24.42,6.22c0,1.89-.34,2.68-.94,2.68S9,143.75,7.25,138a32.24,32.24,0,0,1,3.23-.08c1.21-.07,2.76-.21,8.75-1v-5H15.66a33.12,33.12,0,0,0-4.84.43l-.54-2.6a29.82,29.82,0,0,0,5.38.51h3.57v-2a21.29,21.29,0,0,0-.27-3.4,21.64,21.64,0,0,0,2.35.22,13.56,13.56,0,0,1,3.23.43,2.42,2.42,0,0,1-.06-.58v-.21c0-.73,0-.73.06-2.46v-2.68H19a12.78,12.78,0,0,1-3,5.5c-2.15,2.17-4,3.25-8.28,4.56l-.27-.73c4.78-3,6.19-4.77,7.47-9.33h-2a53.22,53.22,0,0,0-5.85.36l-.47-2.68a24,24,0,0,0,6.32.65h6.33v-4.34H15.66A42.37,42.37,0,0,0,10,114l-.47-2.75a28.69,28.69,0,0,0,6.12.65h3.57v-2.68A31.28,31.28,0,0,0,19,106c1.21.14,2.22.29,2.82.36,2.83.36,3.3.58,3.3,1.15s-.54.87-2,1.31v3.11h5.38c1.08-1.38,1.41-1.81,2.63-3.26a27.34,27.34,0,0,1,3.76,3.84,1,1,0,0,1,.34.72c0,.22-.27.36-.61.36H23.13v4.34h7.6c1.15-1.37,1.55-1.8,2.76-3.18a41.45,41.45,0,0,1,3.84,3.91,2.3,2.3,0,0,1,.26.65c0,.22-.2.29-.53.29H27.64Zm5,27A70.8,70.8,0,0,1,27.37,156l6.12-.28c1.68-.08,5.65-.37,11.71-.8l3.36-.22c-1.68-1.08-2.35-1.52-4.91-3.11l.4-.65c8.68,2.17,12.79,3.76,14.13,5.43a6.52,6.52,0,0,1,.94,3.83c0,1.52-.4,2.39-1.14,2.39-.47,0-.81-.29-1.41-1a28.42,28.42,0,0,0-6.26-5.65c-7.8,1.52-26.3,4.34-33.77,5-.41,1.89-.61,2.39-1.21,2.39s-.95-.65-2.49-7.16a32,32,0,0,0,4.44.29c1.34,0,4.24-.07,7.8-.29.4-.87,2-5.14,2.42-6.37H16.07a70.14,70.14,0,0,0-8.35.65L7,147.29a52.8,52.8,0,0,0,9.09.8h40c1.68-2,2.15-2.53,3.83-4.27a58.84,58.84,0,0,1,5.79,4.92c.27.29.33.43.33.65s-.27.36-.8.36Zm13.52-8.61a53.74,53.74,0,0,1,3.77-4.2,61.46,61.46,0,0,1,5.38,4.85,2.39,2.39,0,0,1,.27.58c0,.29-.27.44-.81.44H27.64c-1.41,0-4.85.21-6.6.36l-.6-2.54a56.34,56.34,0,0,0,7.2.51ZM39.88,121c2.16,1.23,3,1.74,4.78,2.9a48,48,0,0,0,1.08-7.31h-3a38.09,38.09,0,0,0-5.18.43l-.54-2.6a29.2,29.2,0,0,0,5.72.51H45.8c.07-.94.07-2.54.07-4.27a22.48,22.48,0,0,0-.2-3.55c6.19.8,6.39.87,6.39,1.67,0,.57-.47.86-2.15,1.44v.8a33.24,33.24,0,0,1-.21,3.91h5l2.15-2.32A39.39,39.39,0,0,1,60.54,115c.47.43.6.65.6,1,0,.58-.47.94-2.42,1.88.4,9,1.14,11.8,4.17,16.5a92.93,92.93,0,0,0,4.37-9.33l.68.29-1.89,8.54c-.27,1.51-.4,2.31-.4,2.46a4.4,4.4,0,0,0,.74,1.88c.6.94.67,1.15.67,1.81a1.55,1.55,0,0,1-1.48,1.73c-1.81,0-4-2-6.12-5.57-3.1-5.14-4-8.83-4.71-19.68H49.57c-.4,4.78-.74,6.44-1.88,9.48,3.63,3,4.3,4,4.3,6.37,0,1.66-.33,2.46-1,2.46-.53,0-.6-.15-1.68-1.89a29.46,29.46,0,0,0-3-4.19c-2.35,4-5.45,6.8-11,10.06l-.34-.66c5.45-5.06,7.33-7.52,9-12-1.88-1.88-2.15-2.17-4.64-4.63Z"/><path class="cls-1" d="M109.3,111.39c1.21-1.74,1.54-2.25,2.69-3.77a39,39,0,0,1,4.51,4.49,1.26,1.26,0,0,1,.2.43c0,.29-.34.51-.67.51h-7.88v6.8a31.25,31.25,0,0,1,5.45,4.27c1.69,1.59,2.16,2.53,2.16,4.34,0,2.17-1.21,4.78-2.22,4.78-.54,0-.94-.51-1.21-1.59-1.22-5-2.29-7.46-4.18-10,0,18.6,0,31.91.07,38.93-.07,1-.81,1.23-3.63,1.23-.67,0-1-.29-1-.87v-.22c.13-4.19.13-4.27.27-10.13.13-10.56.13-12.3.4-17.72l.41-11.58a76.35,76.35,0,0,1-11,24.46l-.74-.58A133.47,133.47,0,0,0,103,113.05H98.67a24.63,24.63,0,0,0-4.17.36l-.54-2.6a19.09,19.09,0,0,0,4.71.58h4.91V100.68a32.78,32.78,0,0,0-.2-4.85c1.48.14,2.62.29,3.36.36,3.43.29,4.1.44,4.1,1.16s-.47.94-2.69,1.81v12.23ZM132.58,139a26.43,26.43,0,0,0,4.44,8.4,29.17,29.17,0,0,0,7.13-8.18c4.84,3,5.78,3.62,5.78,4.2,0,.43-.4.72-1,.72a15.55,15.55,0,0,1-2.35-.29,37.18,37.18,0,0,1-6.86,6.37c2.89,2.6,4.84,3.69,9.55,5.28a83.78,83.78,0,0,0,5.65-10.92l.94.43-2.15,9.12a7.47,7.47,0,0,0-.27.79,3.71,3.71,0,0,0-.13.8c0,.5.13.65,1.55,2a2.57,2.57,0,0,1,.74,1.81,2,2,0,0,1-2.22,2,21.2,21.2,0,0,1-7.88-2.32c-3.76-1.74-5.72-3.11-9.42-6.66-6.32,4.06-12.11,6-23.21,7.89l-.26-1c11.43-3.69,15.07-5.28,21.19-9.55a33.35,33.35,0,0,1-5.12-10.42l-8.34,1a19.58,19.58,0,0,0-5.45,1.09l-.8-2.75a23.63,23.63,0,0,0,3.29.29,14.8,14.8,0,0,0,2.42-.22l8.41-1c-.53-2-.8-3.26-1.14-5-.54-2.82-.61-3-.94-4.34,6.79.36,7.6.51,7.6,1.38,0,.5-.4.72-2.69,1.59a40.2,40.2,0,0,0,1.08,5.86l13-1.59c1.41-2,1.82-2.68,3.09-4.63,2.7,1.73,3.5,2.31,6.26,4.34.27.29.34.43.34.51s-.27.36-.61.36Zm-.81-28.87a20.34,20.34,0,0,0,4.71,7c3.83-3,5.25-4.48,6.73-6.65,1.14.65,2.08,1.15,2.69,1.44,2.22,1.23,2.82,1.67,2.82,2.25,0,.43-.4.79-1,.79a8.73,8.73,0,0,1-2.22-.29,41.58,41.58,0,0,1-6.25,5,29.12,29.12,0,0,0,9.82,4.64c3-5,3.3-5.58,5-9l.68.22-1.41,6.87a10.46,10.46,0,0,0-.27,1.74c0,.65.13.87,1.41,2a2.55,2.55,0,0,1,.87,1.81c0,1.08-.87,1.8-2.22,1.8-4.64,0-12.17-3.4-17.62-7.88-5.86,3.18-10.1,4.7-17.76,6.37l-.48-1a66.53,66.53,0,0,0,15.75-7.74,28.51,28.51,0,0,1-5.18-8.83l-5.52.73a17.09,17.09,0,0,0-4.31,1l-.87-2.9a20.73,20.73,0,0,0,3.09.29,15.62,15.62,0,0,0,1.75-.14l5.25-.65a57,57,0,0,1-2.22-8.68c-.54-3.12-.6-3.41-.94-4.78,6.59.22,7.47.36,7.47,1.23,0,.58-.68,1-2.63,1.74a51.45,51.45,0,0,0,2.16,10L145,106.61c1.42-2.24,1.82-2.89,3.16-5,2.76,1.95,3.64,2.6,6.26,4.63a.85.85,0,0,1,.34.43c0,.22-.27.37-.68.37Zm2.42-13.38c4.58,1.3,6.06,1.81,7.13,2.53a3.4,3.4,0,0,1,2,3.26c0,1.81-.54,3.11-1.28,3.11s-.87-.15-2.15-2a26.07,26.07,0,0,0-6.05-5.93Zm.81,30.24c5.45,1.38,7.67,2.68,7.67,4.34,0,1.89-.68,3.55-1.42,3.55-.47,0-.67-.22-1.81-1.81a18.92,18.92,0,0,0-4.85-5.06Z"/><path class="cls-1" d="M15.56,36.94a27.17,27.17,0,0,1-2.42,7.38A25.26,25.26,0,0,1,8,51.62l-.81-.79a27,27,0,0,0,4.24-11.29A73.92,73.92,0,0,0,12,28.47c0-1.81-.07-2.82-.14-4.85a48.54,48.54,0,0,1,5.05,2.17H32c.81-1,1.08-1.3,1.95-2.31C35.28,24.63,35.68,25,37,26.15c.41.29.61.58.61.87,0,.44-.27.65-1.61,1.74,0,3.76,0,4.92.06,8.46v.22a.69.69,0,0,1-.54.73,7,7,0,0,1-2.62.5c-.6,0-.81-.14-.81-.65V36.94Zm16.69-24c1.28-1.66,1.68-2.1,3-3.62,2.08,1.81,2.69,2.39,4.51,4.2.2.36.33.51.33.65s-.33.44-.74.44H26v5.71h5c1.28-1.59,1.68-2,3-3.47a47.39,47.39,0,0,1,4.31,4.05,1.55,1.55,0,0,1,.26.58c0,.15-.33.51-.47.51H15.43a29.85,29.85,0,0,0-4.11.36l-.53-2.61a16.45,16.45,0,0,0,4.64.58H22V14.58H13.21a34.45,34.45,0,0,0-4.51.36l-.54-2.61a19.09,19.09,0,0,0,5.05.58H22V11.47C22,10,21.89,9,21.82,7c6.32.65,6.46.72,6.46,1.45,0,.58-.61.94-2.29,1.37v3.11Zm-13,32.71a11.68,11.68,0,0,0-4.44.5l-.47-2.67a18.28,18.28,0,0,0,4.91.5h33c1.42-1.44,1.82-1.88,3.23-3.25a53.41,53.41,0,0,1,4.71,4.12,1,1,0,0,1,.27.51c0,.14-.2.29-.47.29H53.17v17.8c9.89-.8,9.89-.8,14-1.23v1.16c-5.58,1-7.8,1.37-14,2.17.07,2.24.07,2.24.2,6.87-.06.43-.2.58-.67.8a16.52,16.52,0,0,1-3.09.36c-.68,0-1-.22-1-.8,0-2.68,0-4.92.07-6.73-19.58,2-19.58,2-35.93,3.19-.33,2-.6,2.53-1.14,2.53s-1-.94-2.35-7c2.82.15,4.17.15,6.25.15,1.55,0,2.63,0,6.66-.08V45.62Zm3-18.16H16.3a62.62,62.62,0,0,1-.54,7.81h6.46Zm9.89,7.81V27.46H26v7.81ZM48.73,50.76V45.62H26.53v5.14Zm-22.2,6.8h22.2V52.42H26.53Zm0,1.66v5.5l3.9-.07c2.76-.07,3-.07,8.34-.36,4.85-.29,5.25-.29,10-.51V59.22ZM69.32,39.9c-2.43.73-3.23,1.52-4,4.27-6.53-2.1-10.16-3.83-13.79-6.58-4.58,2.67-8.28,4-14.67,5.21l-.27-1A45.76,45.76,0,0,0,49.2,35.56,26,26,0,0,1,43.69,28h-.75a19.7,19.7,0,0,0-3.16.36l-.27-2.53a11.65,11.65,0,0,0,3.43.51H57.21c1.14-1.3,1.48-1.67,2.62-2.9,1.75,1.31,2.29,1.74,4,3.12.54.43.74.72.74,1,0,.58-.67.94-2.35,1.16a47.46,47.46,0,0,1-8,7.16c4.51,1.88,8.48,2.68,15.14,3.11Zm-15.61-30a28.51,28.51,0,0,1,2.35-2.46,39,39,0,0,1,3.1,2.46c.4.29.54.51.54.8,0,.51-.61.94-2,1.52v5.72c0,1.08,0,1.08,2.76,1.08,2.55,0,2.69,0,3-.8.74-1.44,1.35-3.69,2.29-8.32l.81.15V16c0,2.17.07,2.39,1.08,2.9.67.43,1,.86,1,1.44,0,1.6-1.27,2-6.39,2-8.14,0-8.34-.08-8.34-2.54V11.54h-7.4c-.4,4.92-.94,6.8-2.49,9a16.09,16.09,0,0,1-5.58,4.92l-.68-.72C41.4,21,42.2,18.63,42.2,11.47c0-1.45-.06-2.25-.2-4.06,2.22,1,2.9,1.31,5,2.46ZM44.9,28c2.35,3.33,3.56,4.63,6.12,6.3A25.2,25.2,0,0,0,57.14,28Z"/><path class="cls-1" d="M140.34,11.86c1.35-1.74,1.75-2.24,3.16-3.83,2.76,2,3.57,2.67,6.06,4.7.81.65,1.14,1,1.14,1.37a1,1,0,0,1-.4.66c-.41.36-.47.36-4.24.79-1.21,1.09-2.22,1.88-2.83,2.39-6.39,5.35-7.6,6.29-11.84,9,.2,0,.34.07.47.07.88.22,1.35.58,1.35.94s-.34.8-2.76,2v7.45h17c2-2.53,2.63-3.33,4.71-5.79,3,2.61,3.91,3.4,6.8,6.15a1.26,1.26,0,0,1,.27.65.69.69,0,0,1-.67.65H130.45V56.87l.07,7.45v1.74c-.07,2.53-.74,3.61-2.83,4.84-1.07.65-2.08,1-5.51,2-1-2.89-1.55-3.76-3.1-4.49s-3.23-1-10-1.73l.13-1.31,15.41.66c.87-.08,1-.22,1-1.52V39h-21.2a53.38,53.38,0,0,0-6.66.37L97,36.68a37.63,37.63,0,0,0,7.4.65h21.2V36c0-6.88,0-6.88-.41-10.5,2.09.37,3.17.66,4.38.94a78.89,78.89,0,0,0,10.76-12.88H110.13a50.5,50.5,0,0,0-6.32.37l-.61-2.75a36.23,36.23,0,0,0,7.41.72Z"/><polygon class="cls-1" points="82.78 82.61 82.78 2.15 81.79 2.15 81.79 82.61 1.33 82.61 1.33 83.6 81.79 83.6 81.79 164.07 82.78 164.07 82.78 83.6 163.25 83.6 163.25 82.61 82.78 82.61"/><path class="cls-1" d="M11.41,188.75c0,2.29,0,2.57,1.44,2.73l.59.06a.44.44,0,0,1,0,.55c-1.25-.05-2-.07-2.84-.07s-1.7,0-2.66.07a.43.43,0,0,1-.05-.55l.46-.06c1.27-.18,1.31-.44,1.31-2.73v-8.06c0-1.86,0-2.23-1-2.34l-.78-.08a.38.38,0,0,1,0-.55,35.1,35.1,0,0,1,4.32-.17,7.94,7.94,0,0,1,4.2.87,3.78,3.78,0,0,1,1.74,3.28,3.71,3.71,0,0,1-2.18,3.47,7.5,7.5,0,0,1-3,.65c-.16-.06-.16-.39,0-.44,2.35-.43,3.2-1.76,3.2-3.66a3.22,3.22,0,0,0-3.51-3.5c-1.16,0-1.18.09-1.18.79Z"/><path class="cls-1" d="M36.68,185c-1,0-1.09,0-1.09.7v3.08c0,2.29.11,2.59,1.33,2.73l.63.06c.13.09.09.48,0,.55-1.18-.05-1.92-.07-2.77-.07s-1.68,0-2.53.07a.42.42,0,0,1-.05-.55l.37-.06c1.23-.22,1.27-.44,1.27-2.73v-7.86c0-2.3-.15-2.67-1.29-2.75l-.57,0c-.13-.08-.08-.48,0-.54,1.07,0,1.81.06,2.75.06s1.59,0,2.53-.06c.13.06.17.46,0,.54l-.41,0c-1.27.13-1.31.45-1.31,2.75v2.51c0,.67,0,.7,1.09.7h6.24c1,0,1.1,0,1.1-.7v-2.51c0-2.3-.05-2.62-1.34-2.75l-.41,0c-.13-.08-.09-.48,0-.54,1,0,1.75.06,2.64.06s1.6,0,2.58-.06c.13.06.18.46,0,.54l-.45,0c-1.27.13-1.31.45-1.31,2.75v7.86c0,2.29,0,2.57,1.31,2.73l.52.06c.13.09.09.48,0,.55C46.55,192,45.81,192,45,192s-1.68,0-2.64.07a.43.43,0,0,1,0-.55l.41-.06C44,191.26,44,191,44,188.75v-3.08c0-.66-.05-.7-1.1-.7Z"/><path class="cls-1" d="M59.54,185a7.54,7.54,0,0,1,7.77-7.71,7.19,7.19,0,0,1,7.58,7.49,7.45,7.45,0,0,1-7.58,7.62A7.35,7.35,0,0,1,59.54,185Zm13.16.46c0-3.6-1.59-7.49-5.76-7.49-2.27,0-5.22,1.55-5.22,6.33,0,3.23,1.57,7.42,5.88,7.42C70.22,191.69,72.7,189.73,72.7,185.43Z"/><path class="cls-1" d="M100.13,188.31c0,.65,0,3.25.06,3.82a.38.38,0,0,1-.41.24c-.26-.37-.9-1.13-2.8-3.3l-5.06-5.76c-.59-.68-2.08-2.47-2.53-2.95h0a6,6,0,0,0-.11,1.42v4.76c0,1,0,3.87.4,4.52.13.24.56.37,1.11.42l.68.06a.4.4,0,0,1,0,.55c-1-.05-1.74-.07-2.55-.07s-1.51,0-2.27.07a.4.4,0,0,1,0-.55l.58-.06c.51-.07.86-.2,1-.44a20.81,20.81,0,0,0,.29-4.5v-6.31a2,2,0,0,0-.48-1.57,2.31,2.31,0,0,0-1.35-.52l-.38,0c-.13-.13-.13-.46.05-.54.91.06,2.07.06,2.46.06a7.84,7.84,0,0,0,1-.06c.44,1.11,3,4,3.73,4.8l2.12,2.38c1.51,1.68,2.58,2.9,3.6,4h0a2.16,2.16,0,0,0,.09-.92v-4.67c0-1,0-3.86-.43-4.52-.14-.19-.48-.32-1.36-.43l-.37,0c-.15-.13-.13-.48,0-.54,1,0,1.75.06,2.58.06s1.51,0,2.25-.06a.38.38,0,0,1,0,.54l-.3,0c-.7.11-1.14.28-1.23.45-.37.79-.32,3.5-.32,4.5Z"/><path class="cls-1" d="M113.59,185a7.54,7.54,0,0,1,7.77-7.71,7.19,7.19,0,0,1,7.57,7.49,7.45,7.45,0,0,1-7.57,7.62A7.35,7.35,0,0,1,113.59,185Zm13.16.46c0-3.6-1.59-7.49-5.76-7.49-2.27,0-5.22,1.55-5.22,6.33,0,3.23,1.57,7.42,5.87,7.42C124.26,191.69,126.75,189.73,126.75,185.43Z"/><path class="cls-1" d="M154.2,188.31c0,.65,0,3.25.07,3.82a.41.41,0,0,1-.42.24c-.26-.37-.89-1.13-2.79-3.3L146,183.31c-.59-.68-2.07-2.47-2.53-2.95h0a5.48,5.48,0,0,0-.11,1.42v4.76c0,1,0,3.87.39,4.52.13.24.57.37,1.11.42l.68.06a.41.41,0,0,1,0,.55c-1-.05-1.75-.07-2.56-.07s-1.5,0-2.27.07a.41.41,0,0,1,0-.55l.59-.06c.5-.07.85-.2,1-.44a20.84,20.84,0,0,0,.28-4.5v-6.31a2,2,0,0,0-.48-1.57,2.28,2.28,0,0,0-1.35-.52l-.37,0c-.13-.13-.13-.46,0-.54.92.06,2.08.06,2.47.06a7.57,7.57,0,0,0,1-.06c.44,1.11,3,4,3.74,4.8l2.11,2.38c1.51,1.68,2.58,2.9,3.61,4h0a2.16,2.16,0,0,0,.09-.92v-4.67c0-1,0-3.86-.44-4.52-.13-.19-.48-.32-1.35-.43l-.37,0c-.16-.13-.14-.48,0-.54,1,0,1.75.06,2.57.06s1.51,0,2.25-.06a.37.37,0,0,1,.05.54l-.31,0c-.7.11-1.13.28-1.22.45-.37.79-.33,3.5-.33,4.5Z"/><path class="cls-1" d="M15.71,213.57c-.15-.48-.24-.55-.89-.55h-3.3c-.55,0-.68.07-.83.52l-.76,2.3a8.14,8.14,0,0,0-.48,1.81c0,.26.1.39.63.44l.72.06a.36.36,0,0,1,0,.55c-.57,0-1.25,0-2.27-.07-.73,0-1.51.05-2.1.07a.44.44,0,0,1,0-.55l.72-.06A1.48,1.48,0,0,0,8.38,217c.39-1,1-2.43,1.92-4.87l2.22-5.9a3,3,0,0,0,.37-1.55,2.37,2.37,0,0,0,1.14-.83.32.32,0,0,1,.33.2c.28,1,.63,2,1,2.93l3,8.77c.63,1.88.92,2.21,1.85,2.32l.59.06c.16.11.11.46,0,.55-.89,0-1.66-.07-2.64-.07s-1.88.05-2.51.07a.38.38,0,0,1,0-.55l.63-.06c.46-.05.77-.18.77-.4a4.27,4.27,0,0,0-.29-1.15Zm-4.32-1.95c-.18.51-.15.53.46.53h2.68c.64,0,.68-.09.48-.68l-1.18-3.56a13.52,13.52,0,0,0-.5-1.37h0a11.34,11.34,0,0,0-.53,1.29Z"/><path class="cls-1" d="M77.24,207.52c0-2.07-.06-2.45-1-2.55l-.7-.09a.37.37,0,0,1,0-.55c1.22-.11,2.73-.17,4.87-.17a7.78,7.78,0,0,1,3.64.65,3.26,3.26,0,0,1,1.81,3.06,4,4,0,0,1-2.73,3.64c-.1.14,0,.35.11.53,1.75,2.81,2.91,4.56,4.39,5.81a2.71,2.71,0,0,0,1.51.61.18.18,0,0,1,0,.3,3.27,3.27,0,0,1-1,.11c-1.86,0-3-.54-4.52-2.75-.57-.81-1.46-2.31-2.14-3.3a1.56,1.56,0,0,0-1.55-.69c-1,0-1,0-1,.48v2.75c0,2.29,0,2.55,1.31,2.73l.46.06a.44.44,0,0,1,0,.55c-1,0-1.73-.07-2.6-.07s-1.7,0-2.73.07a.43.43,0,0,1,0-.55l.54-.06c1.27-.16,1.31-.44,1.31-2.73ZM79,210.64a1.63,1.63,0,0,0,.07.72c.07.07.39.11,1.51.11a3.64,3.64,0,0,0,2.24-.57,3.11,3.11,0,0,0,1.1-2.7,3.22,3.22,0,0,0-3.5-3.37c-1.35,0-1.42.09-1.42.7Z"/><path class="cls-1" d="M149.36,215.36c0,2.29,0,2.62,1.31,2.73l.7.06a.43.43,0,0,1-.05.55c-1.24,0-2-.07-2.86-.07s-1.63,0-3,.07a.39.39,0,0,1,0-.55l.79-.06c1.24-.11,1.35-.44,1.35-2.73V205.6c0-.68,0-.7-.66-.7h-1.2a4.38,4.38,0,0,0-2.68.55,4,4,0,0,0-1,1.5.43.43,0,0,1-.57-.15,22.52,22.52,0,0,0,.83-3.25c.06-.05.35-.07.41,0,.13.7.85.67,1.86.67h8.84c1.18,0,1.38,0,1.7-.61.11,0,.35,0,.4.07a13,13,0,0,0-.33,3.32.42.42,0,0,1-.57,0c-.07-.55-.22-1.35-.55-1.59a4.27,4.27,0,0,0-2.53-.55H150c-.65,0-.63,0-.63.74Z"/></g></svg>