<svg id="main" xmlns="http://www.w3.org/2000/svg" viewBox="0 0 486.97 661.41"><defs><style>.cls-1{fill:#fff;stroke:#000;stroke-miterlimit:10;stroke-width:5px;}</style></defs><line class="cls-1" x1="4" y1="248.99" x2="486.97" y2="248.99"/><line class="cls-1" x1="245.48" y1="7.51" x2="245.48" y2="490.47"/><path d="M47.55,546.49c0-6.67-.14-7.46-3.19-7.79l-2.25-.26a1.44,1.44,0,0,1,.14-2.24c4.8-.33,10.46-.6,16.78-.6s10.23.66,13.28,1.72c4.43,1.51,8.86,5,8.86,11.42,0,10.82-12,12.4-15.83,12.4-.87,0-1.52,0-2.32-.07a1.19,1.19,0,0,1-.22-1.78c6-1.71,7.26-5.61,7.26-10.49s-2.76-10.16-9.29-10.16c-2.69,0-2.83.72-2.83,3.36v27.85c0,6.14.43,6.67,3.7,7.13l2.32.33a1.35,1.35,0,0,1,0,2.24c-4.06-.13-7.62-.19-11.11-.19s-7,.06-10.89.19c-.79-.39-.94-1.91-.14-2.24l2-.33c3.27-.53,3.7-1,3.7-7.13Z"/><path d="M122.5,558.44c-3,0-3,.06-3,1.91v9.5c0,6.14.43,6.73,3.7,7.13l2.32.26a1.75,1.75,0,0,1,0,2.31c-4.14-.13-7.77-.19-11-.19-3.49,0-7.12.06-10.82.19a1.75,1.75,0,0,1,0-2.31l1.74-.19c3.34-.4,3.7-1.06,3.7-7.2V545.3c0-6.14-.36-6.8-3.7-7.19l-1.74-.2a1.75,1.75,0,0,1,0-2.31c3.56.13,7.33.2,10.82.2,3.26,0,6.89-.07,10.09-.2a1.75,1.75,0,0,1,0,2.31l-1.53.2c-3.12.39-3.55,1-3.55,7.19V553c0,1.91.07,2,3,2h15.1c3.05,0,3.05-.07,3.05-2V545.3c0-6.14-.37-6.66-3.71-7.13l-2-.26a1.75,1.75,0,0,1,0-2.31c4,.13,7.55.2,11,.2s6.9-.07,10.23-.2a1.73,1.73,0,0,1,0,2.31l-1.45.2c-3.34.46-3.77,1-3.77,7.19v24.55c0,6.14.43,6.6,3.77,7.13l1.75.26a1.75,1.75,0,0,1,0,2.31c-3.63-.13-7.19-.19-10.53-.19q-5.45,0-10.67.19a1.73,1.73,0,0,1,0-2.31l1.59-.19c3.34-.4,3.71-1.06,3.71-7.2v-9.5c0-1.85,0-1.91-3.05-1.91Z"/><path d="M231.92,557.38c0,14.39-10.6,23-26.21,23-14.59,0-25.19-8.71-25.19-22.5,0-13.07,10.74-23.17,25.92-23.17S231.92,544,231.92,557.38Zm-26.06-19.6c-8.93,0-13.72,7.59-13.72,18.61,0,8.05,3.12,21,15,21,9.51,0,13.21-8.45,13.21-19.14C220.3,547,214.86,537.78,205.86,537.78Z"/><path d="M300.47,568.14c0,4.29,0,8.44.15,10.62-.51.79-2.54,1.52-4.29,1.52-.07,0-2.47-3.37-5.88-7.19l-16.77-18.88c-4.21-4.68-6.61-7.46-7.91-8.45-.37.66-.37,1.79-.37,4.23v12.8c0,5.35.29,10.3,1.09,12.08.66,1.38,2.33,1.85,4.21,2.11l2,.26a2,2,0,0,1,0,2.31c-3.92-.13-6.83-.19-9.73-.19-2.69,0-5.37.06-8.13.19a1.93,1.93,0,0,1,0-2.31l1.23-.19c2-.33,3.41-.8,4-2.18.8-1.78,1-6.73,1-12.08V546c0-3.63-.07-4.69-.51-5.61-.58-1.12-1.59-1.92-4.14-2.25l-2-.26c-.51-.53-.43-2.11.29-2.31,3.41.13,7,.2,10,.2,2.47,0,4.58-.07,6.1-.2.73,3,5.45,8,12,15l6.1,6.53c3.19,3.43,5.3,5.74,7,7.26a8.66,8.66,0,0,0,.29-3v-9.11c0-5.34-.29-10.29-1.09-12.07-.65-1.39-2.25-1.85-4.21-2.12l-2-.26a1.93,1.93,0,0,1,0-2.31c3.92.13,6.75.2,9.73.2,2.68,0,5.3-.07,8.13-.2a2,2,0,0,1,0,2.31l-1.31.2c-1.89.26-3.27.79-3.92,2.18-.8,1.78-1.09,6.73-1.09,12.07Z"/><path d="M380.06,557.38c0,14.39-10.6,23-26.21,23-14.6,0-25.2-8.71-25.2-22.5,0-13.07,10.75-23.17,25.92-23.17S380.06,544,380.06,557.38ZM354,537.78c-8.93,0-13.72,7.59-13.72,18.61,0,8.05,3.12,21,15,21,9.51,0,13.21-8.45,13.21-19.14C368.44,547,363,537.78,354,537.78Z"/><path d="M448.61,568.14c0,4.29,0,8.44.14,10.62-.51.79-2.54,1.52-4.28,1.52-.08,0-2.47-3.37-5.88-7.19l-16.77-18.88c-4.22-4.68-6.61-7.46-7.92-8.45-.36.66-.36,1.79-.36,4.23v12.8c0,5.35.29,10.3,1.09,12.08.65,1.38,2.32,1.85,4.21,2.11l2,.26a1.93,1.93,0,0,1,0,2.31c-3.92-.13-6.82-.19-9.73-.19-2.68,0-5.37.06-8.13.19a2,2,0,0,1,0-2.31l1.24-.19c2-.33,3.41-.8,4-2.18.8-1.78,1-6.73,1-12.08V546c0-3.63-.08-4.69-.51-5.61-.58-1.12-1.6-1.92-4.14-2.25l-2-.26c-.51-.53-.44-2.11.29-2.31,3.41.13,7,.2,10,.2,2.46,0,4.57-.07,6.09-.2.73,3,5.45,8,12,15l6.1,6.53c3.2,3.43,5.3,5.74,7,7.26a8.66,8.66,0,0,0,.29-3v-9.11c0-5.34-.29-10.29-1.09-12.07-.65-1.39-2.25-1.85-4.21-2.12l-2-.26a2,2,0,0,1,0-2.31c3.92.13,6.75.2,9.73.2,2.69,0,5.3-.07,8.13-.2a1.93,1.93,0,0,1,0,2.31l-1.3.2c-1.89.26-3.27.79-3.93,2.18-.79,1.78-1.08,6.73-1.08,12.07Z"/><path d="M81.78,616.46a88.53,88.53,0,0,0,.79,10.29,1.81,1.81,0,0,1-2.51.46c-1.78-6.13-6-9.43-12.4-9.43-7.33,0-15.18,6.27-15.18,19.4S60.07,657.37,68,657.37s11.68-5.74,13.46-10.22a1.89,1.89,0,0,1,2.51.46c-.47,4.88-1.59,8.84-2.51,10.36-3.57,1-8.25,2.44-13.4,2.44-6.47,0-13.06-1.52-17.75-5a20.71,20.71,0,0,1-8.38-17.29,21.78,21.78,0,0,1,8-17.48c4.69-3.9,11.42-5.88,18.28-5.88S79.8,616.32,81.78,616.46Z"/><path d="M183.06,644.44c-1.58,0-1.78.06-2.18,1.32l-2.57,7.65a7.6,7.6,0,0,0-.46,2.38c0,.4.85.79,2.7,1.12l2,.33c.4.46.53,2-.13,2.31-2.31-.13-4.69-.13-7.46-.2-2.24,0-3.76.2-6.8.2-.72-.39-.66-1.78-.19-2.31l1.78-.2c1.58-.19,2.9-.72,4-3.3s2.38-5.8,4.16-10.56l6-16.1c1.51-4.16,2.64-6.46,2.44-8.38,3.17-.72,5.61-4,5.74-4,.86,0,1.25.33,1.52,1.32.53,1.92,1.32,4.36,3,9l9,25.87c1.39,4,2,5.48,4.42,5.88l2.51.39c.4.33.53,1.92-.06,2.31-3.17-.13-6.73-.2-10.17-.2s-5.87.07-8.91.2a1.51,1.51,0,0,1-.13-2.31l2.11-.33c1.52-.26,1.79-.72,1.79-1.12a28.45,28.45,0,0,0-1.26-4.49l-1.78-5.67c-.33-1.06-.86-1.19-3.17-1.19Zm7.52-3.5c1.52,0,1.85-.2,1.32-1.91l-1.71-5.35c-.93-2.84-2.12-6.4-2.71-7.78-.53,1.51-1.85,5.08-2.84,8.11L183,639c-.59,1.78-.26,2,1.39,2Z"/><path d="M312.45,633.48c0,1.79.07,2,1.85,2h5.08c3.5,0,4.23-.46,4.89-3.69l.33-1.59a2,2,0,0,1,2.5.07c-.13,2.11-.19,4.55-.19,7.06s.06,4.89.19,6.86a2,2,0,0,1-2.5.07l-.33-1.58c-.66-3.17-1.39-3.7-4.89-3.7H314.3c-1.78,0-1.85.2-1.85,2v8.91c0,6.14.4,6.67,3.37,7.06l2.44.33a2.11,2.11,0,0,1,0,2.31c-4.09-.13-7.33-.2-10.49-.2s-6.34.07-10.3.2a1.88,1.88,0,0,1,0-2.31l2.18-.33c3-.46,3.37-.92,3.37-7.06V625.3c0-6.14-.4-6.73-3.37-7.19l-1.32-.2c-.59-.4-.59-2,.13-2.31,2.84.13,6.14.2,9.31.2h13.86c4.22,0,8-.07,8.91-.2,0,1.12,0,5.87.13,10.3-.27.72-1.72.79-2.51.26-.73-2.71-1.25-4.29-1.91-5.15-1.13-1.38-3.11-2.18-6.47-2.18h-5.15c-2.18,0-2.18.14-2.18,2.71Z"/><path d="M433.4,633c0,1.84.06,2,1.85,2h4.55c3.43,0,4.22-.47,4.88-3.63l.33-1.65c.46-.53,2.11-.53,2.44.06-.13,2.11-.19,4.49-.19,7s.06,4.88.19,7a1.89,1.89,0,0,1-2.44.07l-.33-1.65c-.66-3.17-1.45-3.7-4.88-3.7h-4.55c-1.79,0-1.85.07-1.85,2.05v7.85c0,3,.26,5.15,1.05,6.27s2.11,1.72,6.93,1.72c5.74,0,8-.2,11.62-7.66a1.61,1.61,0,0,1,2.44.33,37.77,37.77,0,0,1-2.77,10.56c-3.5-.13-9.84-.2-15.25-.2h-8.58c-3.16,0-6.4.07-11.35.2a1.88,1.88,0,0,1,0-2.31l3.1-.46c3-.46,3.37-.86,3.37-6.93V625.24c0-6-.4-6.41-3.37-7l-1.65-.33a1.66,1.66,0,0,1,.14-2.31c3.1.13,6.33.2,9.5.2h14c4.22,0,8-.07,8.84-.2.07,1.06.53,5.81.86,10.23-.26.73-1.78.86-2.44.26a15.24,15.24,0,0,0-2.51-5.21c-1.25-1.25-3.23-2-6.47-2h-5.27c-2.18,0-2.18.14-2.18,2.58Z"/><path d="M105.11,101.32h-48c-2.76,8.52-9,17.25-22.22,23.37l-1.77-3.06C45.54,110.27,46.52,97,46.52,84.5V65.27L62.05,72.7h41.29l5.7-8.3L126,77.29a12.85,12.85,0,0,1-7.08,3.93V105c0,.66-4.13,4.59-13.76,4.59ZM37.87,40.81,36.69,36H74.63V20.06l23.6,2.18c-.4,3.28-2.36,4.81-8.85,5.68V36H105.7l8.06-11.14,15.33,11.8c-1.57,3.06-3.93,4.15-9,4.15H89.38V56.1h12L109,45.18l15.14,11.57c-1.77,3.06-3.94,4.16-9.05,4.16H44.75L43.57,56.1H74.63V40.81ZM191.8,62.87,204.39,75.1c-1.38,2-3.54,2.41-8.06,2.63-4.33,6.77-10,12.45-16.52,17.69,11.8,3.93,25.56,6.12,39.91,7.43v2.4c-5.9,2-9.63,7.21-11,15.07-4.32-1.09-8.65-2.18-12.78-3.49L211.46,128c-1.57,3.06-3.93,4.37-9.24,4.37H180v56.14L211.66,187v4.37c-9.44,1.53-20,3.05-31.65,4.58v23.59c0,.88-5.11,4.59-13,4.59h-2.55v-26C134.4,201.8,97.83,206,52.42,210.76a9,9,0,0,1-5.51,4.37l-8.65-21.85c8.46,0,20.06-.22,33.82-.65V132.34H41.8l-1.37-4.81h144.1L193.18,116A103.71,103.71,0,0,1,167,103.5c-12.38,6.77-27.32,11.58-43.84,14.86l-1-3.72C136,110.27,148.55,104.59,159,97a71.22,71.22,0,0,1-16.51-22.06h-7.67l-1.37-5h47l7.08-7.21c-9-.65-9.63-4.58-9.63-16.16V34.91h-23c0,7.43,0,26.21-27.52,36l-1.77-3.27c13.57-9.83,14.94-21.41,14.94-31.24V22.24L157.4,30.1h18.68L182,21.8l15.54,13.55a11.16,11.16,0,0,1-6.3,2.84v9.39c0,2.4,0,2.4,2.17,2.4h8.84a3.56,3.56,0,0,0,3.15-1.31c1.38-1.53,3.54-8.74,5.11-12.89h2l.19,13.33c4.13,1.75,5.11,2.62,5.11,5.24,0,5.24-3.93,8.52-14.54,8.52Zm-116,14.86H59.69V84.5a51.64,51.64,0,0,1-1.18,12h17.3Zm88.67,71.21v-16.6H87.22v16.6Zm0,21V153.74H87.22v16.17Zm-77.26,4.8v17.48c22.21-.66,48.75-1.75,77.26-3.06V174.71Zm17.89-97H88.4V96.51h16.71Zm42.66-2.84a57.7,57.7,0,0,0,19.46,15.29,69,69,0,0,0,12.58-15.29Z"/><path d="M435.12,103.72l21.42,16.6c-1.57,3.06-3.93,4.37-9.63,4.37H373v73.18c0,13.54-3.34,23.37-27.72,26,0-13.54-8.65-15.94-29.09-17.91v-3.28H351c4.33,0,5.51-1.52,5.51-5v-73H272.93l-1.18-4.8h84.73V84.06l17.3,1.53C387.15,74.23,402.09,57,410.93,45H291l-1.18-4.81H411.92l10.81-11.36,17.89,18.57c-1.77,1.75-4.13,2.4-8.65,2.62C418.41,61.34,398.16,76.2,379.09,86l2.16.21c-.39,3.06-1.57,4.59-8.26,5.47v28.18h50.72Z"/><path d="M128.62,333.31,135.89,323l16.91,15.07c-1.37,1.75-3.73,3.06-7.86,3.94-.59,88.9-1.57,121.89-9.05,131.06-5.11,5.68-10,8.3-19.85,8.52,0-9.39-1-12.45-15.34-15.29l.2-3.71c5.11,0,13.57.43,17.5.43,3.34,0,4.52-.43,6.09-2.4,5.11-6.55,5.9-41.28,6.29-122.55h-17.1v9.4c-.2,48.27-6.29,104.85-43.25,138.27l-3-2.62c28.51-36,32.05-88.69,32.05-135.43v-9.62H83l-1-3.49v83.45c0,.43-3.74,5.24-13.76,5.24v-14H50v22.06c0,.22-1.37,5.68-13.36,5.68V303.6L51,311H66.5l6.09-8.73L89.3,315.61c-1.18,1.53-3.73,3.06-7.27,3.72v14h17.5V282.85l22.6,2.4c-.19,3.28-2,4.59-8.45,5.24v42.82ZM50,404.52H68.27V315.83H50Zm146.27-99.39,16.51,13.54c-1,1.31-3.14,2.62-6.09,3.28V464.59c0,.22-4.33,5.68-15.14,5.68V446.9h-22v25.56c0,.43-1.37,6.33-14.15,6.33V306.22l14.94,7.86h19.86Zm-26.74,137h22V318.89h-22Z"/><path d="M338.27,314.74a12,12,0,0,1-7.08,3.71v97.21c0,.44-4.33,5.46-14.55,5.46V409.33H297.18v19.44s-1.57,6.11-14.16,6.11V302.29l15.34,7.64h16.51l6.29-8.95Zm-41.09,89.78h19.46V315H297.18Zm86.7-12.67c0,4.81-.2,9.61-.59,14l15.13-5.46a31.32,31.32,0,0,1,.79,3.06c-4.72,3.06-10.22,6.55-16.71,10.48-4.13,32.33-18.68,55.71-51.11,72.09l-2.17-2.84c21.43-15.29,32.64-34.08,37.16-59.42L342.79,437.5a8,8,0,0,1-4.13,5.68L328.44,424.4c7.86-2.18,22.41-7,39.71-13.11.59-6.11.79-12.67.79-19.44V376.34H341.22l-1.38-4.8h29.1V331.78H338.27L336.89,327h32.05V282.19l23.59,2.4c-.4,3.28-2.36,4.59-8.65,5.25Zm49.74,27.74c1.57-2.62,2.94-5.24,9.43-15.07L460.35,420c-1.57,3.28-4.13,4.37-9.43,4.37H418.48v54.83c0,.65-2.17,6.77-15.53,6.77V282.41l24,2.4c-.39,3.06-2.36,4.81-8.45,5.46v36.92h13.17l9-14.64,17.11,15.08c-1.77,3.27-4.33,4.36-9.44,4.36H418.48v39.55h11.4l8.85-14.2L455.44,372c-1.77,3.06-4.13,4.37-9.44,4.37H418.48v43.25Z"/></svg>