<?xml version="1.0" encoding="utf-8"?>
<!-- Generator: Adobe Illustrator 24.3.0, SVG Export Plug-In . SVG Version: 6.00 Build 0)  -->
<svg version="1.1" id="圖層_2_1_" xmlns="http://www.w3.org/2000/svg" xmlns:xlink="http://www.w3.org/1999/xlink" x="0px"
	 y="0px" viewBox="0 0 842.7 528.2" style="enable-background:new 0 0 842.7 528.2;" xml:space="preserve">
<path d="M61.5,102.7C125,54,187.7,55.8,236.6,64.7c39.5,6.2,58,20.5,116.3,23c86.4,3.7,169.9-34.4,195.3-46
	C583.6,25.6,594,15.8,627,7.9c9-2.2,64.8-15.6,111.1-1.5c79.4,24.3,95.3,118.8,101,153.2c4.2,25.2,21.4,151.1-84.8,249.8
	c-51.4,47.8-108.4,67.5-153.7,82.8c-39.1,13.1-225.8,75.8-401.9-2.9C168.9,476.1,13.4,402.3,1.2,264.1
	C-0.7,242.4-8.3,156.2,61.5,102.7z"/>
</svg>
