<svg id="圖層_1" data-name="圖層 1" xmlns="http://www.w3.org/2000/svg" viewBox="0 0 498 1295"><path d="M7,1113.08c1.75,23.84,6.9,43.57,16.53,63.7,14.6,30.34,34.4,48.21,82.11,74.22,22.12,12.11,36.48,18.25,52.19,22.51,28,7.55,48.11,8.92,67.52,4.26,4.93-1.08,5-1.08,8.45,2.2A21.44,21.44,0,0,0,248,1285.7c3.7.09,15.38-3,20.54-5.53,2.73-1.33,6.94-1.74,19-1.76,13.21-.19,17.32-.6,27.28-3,12-2.92,35.36-10.88,49.1-16.76a75.28,75.28,0,0,1,8.17-3.12c.4,0,1,1.43,1.33,3,.88,5.22,5.83,11.73,11,14.35,8.7,4.51,19.74,2.86,26-3.7,6.76-7,8.31-17.71,3.7-25.92-1.44-2.63-3.28-5.17-4.17-5.69-1.19-.73-.06-1.91,5.53-5.78a196.89,196.89,0,0,0,46.47-45.74c19.44-27.45,27.59-55.17,28.45-96.86.3-17.3.11-22.11-1.59-30.55-3.57-18.49-14.9-56.46-24.41-82-3.58-9.69-7.13-20.58-7.84-24.19-2.32-12.36-.9-26.13,3.63-36.13l2-4.55-3.95-6.6-3.94-6.69-5.48,3.18c-8.82,5-20.83,5.21-30.42.49-5.64-2.73-16.69-13.69-22.2-21.82-10.06-14.84-16.76-36.5-22.79-73.95-3.32-21-2.44-41.56,2.29-51.66,4-8.51,15.92-13.43,38.68-15.91l4.81-.48,4.3-8.31,4.39-8.2-2.52-3.46c-3.69-5-7-12.56-9.32-20.92-1.85-6.44-2-8.85-1.27-18.53a177.75,177.75,0,0,1,3.73-23c6.19-25.27,6.31-26.16,7.42-52.54,1.15-28.19.67-37.5-3.11-51.59-5.7-21.74-14.06-36.34-30.57-53.52-25.39-26.5-54.59-40.08-100.45-46.54l-14.06-1.93.09-3.79C277.88,443,273,342.23,265,180.3c-.42-7.71-.93-16.13-1.07-18.83l-.49-4.72,15.6.37c8.8.2,16.51-.12,17.52-.6,1.51-.76,2.41-.54,3.87,1a12.71,12.71,0,0,1,2.23,3.15c.28.91,1.59.64,4.83-1,3.94-1.9,6.35-2.25,17.35-2.29,11.61-.14,12.91-.31,14.26-2.17a11,11,0,0,0,1.62-5.17c.13-5.6-.66-6-13.06-6.3-10.4-.24-11.79-.48-17.53-3.31-5.34-2.62-6.33-2.85-8-1.68-1.33,1.07-5.63,1.17-20.92.61-22.09-.81-19.72.75-20.58-14.08l-.5-8.81,13.38,1c7.39.57,14,1.52,14.66,2,.88.82,1.79.64,3.12-.63,2.85-2.43,5.82-1.07,6.43,3,1.58,9.44,12.46,14.79,21.06,10.29,10.43-5.36,18.05-14.89,18.14-22.79.05-10.8-9.89-22.33-20.85-24.09-6.18-.94-9.42.59-12.94,6a84.11,84.11,0,0,1-5.28,7.48c-2.16,2.55-2.36,2.64-3.52.92-1.07-1.53-1.67-1.54-3.89-.59-1.72.76-7.92,1-17,.8l-14.3-.33-.55-6.51c-.46-5.82-.24-6.71,1.7-8.57s2.17-2.85,1.82-9.26c-.31-3.91-.72-8-1-9.22-.56-1.82-.25-2,2.44-1.55,4.28.7,8.93-1.29,10.81-4.85,2.3-4,3.2-12.93,1.79-16.56-1.23-3.23-6.06-6.24-10.26-6.34-2.2-.05-2.59-.56-2.53-2.86.1-4.6-1.77-10.14-3.74-11.29a13.73,13.73,0,0,0-5-1.11c-2.8-.07-3-.27-2.23-2.86,2-6.95-.28-9.61-10.13-12C226.56,2.76,220,5.71,219.73,16.81c-.14,5.89-.14,5.89-3,5.83-4.9-.12-8.38,3.6-9,9.49l-.62,5.09-4.51.49c-6.22.66-8.25,2-10.56,6.66-3.57,7.52-2.42,13.85,3.76,19.29,2.55,2.16,4,2.7,7.34,2.47l4.21-.2-.61,4.69c-.75,6.28,0,9.1,3.41,12.58l2.83,3-1.31,13.47c-.67,7.39-1.31,13.47-1.41,13.57s-9.31.09-20.51-.07c-13.6-.12-20.59-.58-21.27-1.3s-2.59-.46-6.53,1.15c-9,3.7-14,4.38-21.67,2.8-8.47-1.69-9.78-.92-9.94,6-.17,7.1,2.2,8.46,13.22,7.81,6.91-.34,9.6,0,15,1.75,3.58,1.18,6.74,2.66,7.13,3.27s1.51-.27,2.65-2c1.66-2.67,2.37-3.05,4.15-2.31,1.19.43,10.18,1.24,19.87,1.56l17.79.81-.36,15.4-.36,15.5-15-.35c-9.5-.22-15.89-.77-17.57-1.61-2.18-1.05-2.78-1.06-3.91.41s-1.34,1.47-3.19-.67a45.76,45.76,0,0,1-4.63-7.11c-4.42-8-7.39-9.18-17.06-6.6-9.26,2.49-17.9,13.09-18.21,22.19-.25,10.59,13.62,25.22,24.31,25.47A14.47,14.47,0,0,0,168.45,184c.79-4.08,3.82-5.31,6.56-2.74,1.27,1.33,2.17,1.55,3.08.87.72-.59,7.93-1.12,15.94-1.33l14.61-.37.08,22.31c.12,12.31-.9,73.5-2.25,136.09l-2.33,113.67-8.6.2a112,112,0,0,0-17.16,2.11c-17.49,3.69-47.48,16-62.5,25.46C97.5,492,79.29,513.89,68.65,537.15c-8.12,17.72-11.41,34.54-11,57.46.23,16.31,1.63,24.94,11.53,72.29,4.14,20.1,4.92,25.12,4.32,29.8-1.11,8.88-4.4,16.91-10.4,25.67-1.66,2.36-1.56,2.66,3.16,10.38C70,739,71.34,740.47,72.75,740c10.3-4.06,16.8-4,24.71-.13,9,4.51,15,12.65,17.37,23.11,5.8,25.94,3,69.39-6.23,96.58-7.84,22.93-23.29,42.37-39,49.11-7.37,3.13-19.57,2.65-28.88-1.27a65.53,65.53,0,0,0-7-2.56c-.11.2-2,3.45-4.17,7.4l-4,7,3.6,4.39c9.15,11.21,8.26,23.59-5.08,72.8-9.63,35.39-13.14,53.11-15.85,79.55C7,1088.67,6.38,1105.26,7,1113.08Z"/></svg>