<svg xmlns="http://www.w3.org/2000/svg" viewBox="0 0 186.39 361.26"><defs><style>.cls-1{fill:#231815;}</style></defs><g id="main"><path class="cls-1" d="M54.43,241.75v-3a22.48,22.48,0,0,0-.2-2.89c6.66.94,7,1,7,1.73s-.6.87-2.62,1.38v2.82h8.75c1.88-1.95,1.88-1.95,4.3-4.41a50.46,50.46,0,0,1,6.06,4.92,2,2,0,0,1,.4.72c0,.29-.27.43-.74.43H58.6a22.26,22.26,0,0,0,.13,2.9.63.63,0,0,1-.4.65,12.53,12.53,0,0,1-2.62.29c-1,0-1.35-.22-1.35-.8,0-1.81,0-1.81.07-3H41.11c.06,1.67.06,1.67.06,3.11v.15a.7.7,0,0,1-.6.79,9.17,9.17,0,0,1-2.36.37c-.87,0-1.14-.22-1.14-.94V245a9.58,9.58,0,0,1,.07-1.59H26.84c-2.08,0-5.85.22-8.2.51L18.17,241a47.46,47.46,0,0,0,8.67.72h10.3a7.27,7.27,0,0,1-.07-1.3,28.08,28.08,0,0,0-.34-5.14,25,25,0,0,0,2.69.22c3.3.29,4.24.58,4.24,1.37,0,.58-.47.87-2.55,1.52-.07,1-.07,1.66-.07,2.32a6.62,6.62,0,0,0,.07,1ZM39.36,263.17c0,.86.06,1.08.27,1.23a27.46,27.46,0,0,0,4.91.21c1,0,1.41-.07,1.55-.43A21.18,21.18,0,0,0,47.36,261l.68.14v2c.06.94.06,1,.2,1.08s.07.15,1.07.44a.93.93,0,0,1,.81,1c0,1.3-1.14,1.59-5.65,1.59-6,0-7.13-.14-7.94-.8-.2.58-.33.66-1.68,1.09v3H40.3c1.28-1.23,1.68-1.59,2.89-2.82,1.55,1.44,2,1.88,3.43,3.4.27.36.34.5.34.72s-.27.36-.74.36H34.85v4.49c6.73-.87,7.94-1,11.77-1.74l.34,1a207.93,207.93,0,0,1-24.42,6.22c0,1.88-.34,2.68-.94,2.68s-.88-.8-2.63-6.59c1.15-.07,1.15-.07,3.23-.07,1.21-.07,2.76-.22,8.75-1v-5H27.38a33.31,33.31,0,0,0-4.84.44L22,270.11a29.82,29.82,0,0,0,5.38.51H31v-1.95a21.41,21.41,0,0,0-.27-3.41,19.31,19.31,0,0,0,2.35.22,13.36,13.36,0,0,1,3.23.44,2.47,2.47,0,0,1-.06-.58v-.22c0-.72,0-.72.06-2.46V260H30.75a12.78,12.78,0,0,1-3,5.5c-2.15,2.17-4,3.26-8.28,4.56l-.27-.72c4.78-3,6.19-4.78,7.47-9.34h-2a55.81,55.81,0,0,0-5.85.36l-.47-2.67a24.42,24.42,0,0,0,6.32.65H31V254H27.38a42.21,42.21,0,0,0-5.65.43l-.47-2.75a28.06,28.06,0,0,0,6.12.65H31v-2.68a31.61,31.61,0,0,0-.2-3.25c1.21.14,2.22.29,2.82.36,2.83.36,3.3.58,3.3,1.16s-.54.87-2,1.3v3.11h5.38c1.08-1.37,1.41-1.81,2.63-3.25a27.26,27.26,0,0,1,3.76,3.83,1,1,0,0,1,.34.72c0,.22-.27.37-.61.37H34.85v4.34h7.6c1.15-1.38,1.55-1.81,2.76-3.19A42.69,42.69,0,0,1,49.05,259a2.43,2.43,0,0,1,.26.65c0,.22-.2.29-.53.29H39.36Zm5,27a70.8,70.8,0,0,1-5.25,6.22l6.12-.29c1.68-.07,5.65-.36,11.71-.8l3.36-.21c-1.68-1.09-2.35-1.52-4.91-3.12l.4-.65c8.68,2.17,12.79,3.77,14.13,5.43a6.54,6.54,0,0,1,.94,3.83c0,1.52-.4,2.39-1.14,2.39-.47,0-.81-.29-1.41-1A28.17,28.17,0,0,0,62,296.31c-7.8,1.52-26.3,4.34-33.77,5-.41,1.88-.61,2.39-1.21,2.39s-.95-.66-2.49-7.17a32,32,0,0,0,4.44.29c1.34,0,4.24-.07,7.8-.29.4-.87,2-5.13,2.42-6.36H27.79a68.11,68.11,0,0,0-8.35.65l-.74-3.11a53.73,53.73,0,0,0,9.09.79h40c1.68-1.95,2.15-2.53,3.83-4.27a61.71,61.71,0,0,1,5.79,4.92c.27.29.33.44.33.65s-.27.37-.8.37Zm13.52-8.62a51.85,51.85,0,0,1,3.77-4.19A58.42,58.42,0,0,1,67,282.2a2.21,2.21,0,0,1,.27.57c0,.29-.27.44-.81.44H39.36c-1.41,0-4.85.22-6.6.36l-.6-2.53a56.39,56.39,0,0,0,7.2.5ZM51.6,261.36c2.16,1.23,3,1.73,4.78,2.89a47.85,47.85,0,0,0,1.08-7.31h-3a38.45,38.45,0,0,0-5.18.44l-.54-2.61a29.2,29.2,0,0,0,5.72.51h3.09c.07-.94.07-2.53.07-4.27a22.48,22.48,0,0,0-.2-3.55c6.19.8,6.39.87,6.39,1.67,0,.58-.47.87-2.15,1.45v.79a33.24,33.24,0,0,1-.21,3.91h5L68.62,253a43.82,43.82,0,0,1,3.64,2.46c.47.44.6.65.6,1,0,.58-.47.94-2.42,1.88.4,9,1.14,11.79,4.17,16.5A92.39,92.39,0,0,0,79,265.48l.68.29-1.89,8.54c-.27,1.52-.4,2.31-.4,2.46a4.36,4.36,0,0,0,.74,1.88,2.69,2.69,0,0,1,.67,1.81,1.56,1.56,0,0,1-1.48,1.74c-1.81,0-4-2-6.12-5.58-3.1-5.13-4-8.82-4.71-19.68H61.29c-.4,4.78-.74,6.44-1.88,9.48,3.63,3,4.3,4,4.3,6.37,0,1.66-.33,2.46-1,2.46s-.6-.15-1.68-1.88a29.51,29.51,0,0,0-3-4.2c-2.35,4-5.45,6.8-11,10.06l-.34-.65c5.45-5.07,7.33-7.53,9-12-1.88-1.88-2.15-2.17-4.64-4.63Z"/><path class="cls-1" d="M121,251.79c1.21-1.74,1.55-2.24,2.69-3.76a39.77,39.77,0,0,1,4.51,4.48,1.2,1.2,0,0,1,.2.44c0,.29-.34.5-.67.5h-7.87v6.81a32,32,0,0,1,5.44,4.26c1.69,1.6,2.16,2.54,2.16,4.35,0,2.17-1.21,4.77-2.22,4.77-.54,0-.94-.51-1.21-1.59-1.22-5-2.29-7.45-4.17-10,0,18.6,0,31.91.06,38.93-.06,1-.81,1.23-3.63,1.23-.67,0-1-.29-1-.87v-.21c.13-4.2.13-4.27.27-10.13.13-10.57.13-12.3.4-17.73l.41-11.58a76.35,76.35,0,0,1-11,24.46l-.74-.58a133.33,133.33,0,0,0,10.1-32.13h-4.31a24.59,24.59,0,0,0-4.17.37l-.54-2.61a19.09,19.09,0,0,0,4.71.58h4.91V241.08a32.85,32.85,0,0,0-.2-4.85l3.36.36c3.43.29,4.11.44,4.11,1.16s-.48.94-2.69,1.81v12.23Zm23.28,27.57a26.27,26.27,0,0,0,4.44,8.39,29,29,0,0,0,7.13-8.18c4.84,3,5.78,3.62,5.78,4.2s-.4.72-1,.72a15.55,15.55,0,0,1-2.35-.29,37.18,37.18,0,0,1-6.86,6.37c2.89,2.61,4.84,3.69,9.55,5.28a83.15,83.15,0,0,0,5.65-10.92l.94.43-2.15,9.12a6.86,6.86,0,0,0-.27.8,3.52,3.52,0,0,0-.13.79c0,.51.13.65,1.55,2a2.56,2.56,0,0,1,.74,1.81,2,2,0,0,1-2.22,1.95,21.2,21.2,0,0,1-7.88-2.32c-3.76-1.73-5.72-3.11-9.42-6.65-6.32,4.05-12.11,6-23.21,7.89l-.26-1c11.43-3.69,15.07-5.28,21.19-9.55a33.35,33.35,0,0,1-5.12-10.42l-8.34,1a20.34,20.34,0,0,0-5.45,1.09l-.8-2.75a22.16,22.16,0,0,0,3.29.29,13.78,13.78,0,0,0,2.42-.22l8.41-1c-.53-1.95-.8-3.26-1.14-5-.54-2.82-.61-3-.94-4.34,6.79.36,7.6.5,7.6,1.37,0,.51-.4.72-2.69,1.59a40.2,40.2,0,0,0,1.08,5.86l13-1.59c1.41-2,1.82-2.68,3.09-4.63,2.7,1.74,3.5,2.32,6.26,4.34.27.29.34.44.34.51,0,.22-.27.36-.61.36Zm-.81-28.87a20.44,20.44,0,0,0,4.71,7c3.83-3,5.25-4.49,6.73-6.66,1.14.65,2.08,1.16,2.69,1.45,2.22,1.23,2.82,1.66,2.82,2.24s-.4.79-1,.79a9.14,9.14,0,0,1-2.22-.28,41.58,41.58,0,0,1-6.25,5,29.3,29.3,0,0,0,9.82,4.63c3-5,3.3-5.57,5.05-9l.67.21-1.41,6.88a10.64,10.64,0,0,0-.27,1.73c0,.66.13.87,1.41,2a2.57,2.57,0,0,1,.87,1.81c0,1.08-.87,1.81-2.22,1.81-4.64,0-12.17-3.4-17.62-7.89-5.86,3.18-10.1,4.7-17.76,6.37l-.48-1a66.56,66.56,0,0,0,15.75-7.75,28.45,28.45,0,0,1-5.18-8.82l-5.52.72a17.54,17.54,0,0,0-4.31,1l-.87-2.89a20.73,20.73,0,0,0,3.09.29,13.64,13.64,0,0,0,1.75-.15l5.25-.65a56.4,56.4,0,0,1-2.22-8.68c-.54-3.11-.6-3.4-.94-4.78,6.59.22,7.47.36,7.47,1.23,0,.58-.68,1-2.63,1.74a51.54,51.54,0,0,0,2.16,10L156.74,247c1.42-2.24,1.82-2.89,3.16-5,2.76,2,3.64,2.61,6.26,4.63a.87.87,0,0,1,.34.44c0,.21-.27.36-.67.36Zm2.42-13.39c4.58,1.3,6.06,1.81,7.13,2.53a3.4,3.4,0,0,1,2,3.26c0,1.81-.54,3.11-1.27,3.11s-.88-.14-2.16-2a26.3,26.3,0,0,0-6.05-5.94Zm.81,30.25c5.45,1.37,7.67,2.67,7.67,4.34,0,1.88-.67,3.54-1.42,3.54-.47,0-.67-.21-1.81-1.81a19.22,19.22,0,0,0-4.84-5.06Z"/><path class="cls-1" d="M27.28,177.34a27,27,0,0,1-2.42,7.38A25.43,25.43,0,0,1,19.68,192l-.81-.8a26.89,26.89,0,0,0,4.24-11.29,73.92,73.92,0,0,0,.61-11.07c0-1.81-.07-2.82-.14-4.84a44.6,44.6,0,0,1,5.05,2.17H43.7c.81-1,1.08-1.31,1.95-2.32l3.1,2.68a1.17,1.17,0,0,1,.6.87c0,.43-.27.65-1.61,1.73,0,3.77,0,4.92.06,8.47v.22a.68.68,0,0,1-.54.72,6.78,6.78,0,0,1-2.62.51c-.6,0-.81-.15-.81-.66v-1.08Zm16.69-24c1.28-1.67,1.68-2.1,3-3.62,2.08,1.81,2.69,2.39,4.51,4.19.2.37.33.51.33.66s-.33.43-.74.43H37.71v5.72h5c1.28-1.59,1.68-2,3-3.48A48.93,48.93,0,0,1,50,161.28a1.45,1.45,0,0,1,.26.57c0,.15-.33.51-.47.51H27.15a31.65,31.65,0,0,0-4.11.36l-.53-2.6a16.82,16.82,0,0,0,4.64.58h6.53V155H24.93a36.28,36.28,0,0,0-4.51.36l-.54-2.6a19.51,19.51,0,0,0,5.05.58h8.75v-1.45c0-1.45-.07-2.46-.14-4.49,6.32.65,6.46.73,6.46,1.45s-.61.94-2.29,1.38v3.11Zm-13,32.7a11.43,11.43,0,0,0-4.44.51L26,183.85a18.22,18.22,0,0,0,4.91.51h33c1.42-1.45,1.82-1.88,3.23-3.26a53.51,53.51,0,0,1,4.71,4.13,1,1,0,0,1,.27.5c0,.15-.2.29-.47.29H64.89v17.8c9.89-.79,9.89-.79,14-1.23v1.16c-5.58,1-7.8,1.37-14,2.17.07,2.24.07,2.24.2,6.87-.06.44-.2.58-.67.8a16.52,16.52,0,0,1-3.09.36c-.68,0-.95-.22-.95-.79,0-2.68,0-4.92.07-6.73-19.58,1.95-19.58,1.95-35.92,3.18-.34,1.95-.61,2.53-1.15,2.53s-1-.94-2.35-7c2.82.15,4.17.15,6.25.15,1.55,0,2.63,0,6.66-.07V186Zm3-18.16H28a62.62,62.62,0,0,1-.54,7.81h6.46Zm9.89,7.81v-7.81H37.71v7.81Zm16.62,15.49V186H38.25v5.14ZM38.25,198h22.2v-5.14H38.25Zm0,1.66v5.5l3.9-.07c2.76-.07,3-.07,8.34-.36,4.85-.29,5.25-.29,10-.51v-4.56ZM81,180.3c-2.43.73-3.23,1.52-4,4.27-6.52-2.09-10.16-3.83-13.79-6.58-4.58,2.68-8.28,4-14.67,5.21l-.27-1A45.78,45.78,0,0,0,60.92,176a26.07,26.07,0,0,1-5.51-7.59h-.75a18.62,18.62,0,0,0-3.16.36l-.27-2.53a11.63,11.63,0,0,0,3.43.5H68.93c1.14-1.3,1.48-1.66,2.62-2.89,1.75,1.3,2.29,1.73,4,3.11.54.43.74.72.74,1,0,.58-.67.94-2.35,1.16a46.65,46.65,0,0,1-8,7.16c4.51,1.88,8.48,2.68,15.14,3.11Zm-15.61-30a25.87,25.87,0,0,1,2.35-2.46,34.9,34.9,0,0,1,3.1,2.46c.4.29.54.5.54.79,0,.51-.61.94-2,1.52v5.72c0,1.08,0,1.08,2.76,1.08,2.55,0,2.69,0,3-.79.74-1.45,1.35-3.69,2.29-8.32l.81.14v5.94c0,2.17.07,2.38,1.08,2.89a1.73,1.73,0,0,1,1,1.45c0,1.59-1.27,2-6.39,2-8.14,0-8.34-.07-8.34-2.53v-8.18h-7.4c-.4,4.92-.94,6.8-2.49,9.05a16.3,16.3,0,0,1-5.58,4.92l-.68-.73c3.64-3.76,4.44-6.15,4.44-13.31,0-1.45-.06-2.24-.2-4.05,2.22,1,2.9,1.3,5.05,2.46Zm-8.81,18.09c2.35,3.32,3.56,4.63,6.12,6.29a25.16,25.16,0,0,0,6.12-6.29Z"/><path class="cls-1" d="M152.06,152.26c1.35-1.73,1.75-2.24,3.16-3.83,2.76,2,3.57,2.68,6.06,4.7.81.65,1.14,1,1.14,1.38a1,1,0,0,1-.4.65c-.41.36-.47.36-4.24.79-1.21,1.09-2.22,1.89-2.83,2.39-6.39,5.36-7.6,6.3-11.84,9,.2,0,.34.08.47.08.88.21,1.35.58,1.35.94s-.34.79-2.76,1.95v7.45h17c2-2.53,2.62-3.32,4.7-5.78,3,2.6,3.91,3.4,6.8,6.15a1.2,1.2,0,0,1,.27.65.69.69,0,0,1-.67.65H142.17v17.87l.07,7.45v1.74c-.07,2.53-.74,3.62-2.83,4.85-1.07.65-2.08,1-5.51,2-1-2.89-1.55-3.76-3.1-4.48s-3.23-1-10-1.74l.13-1.3,15.41.65c.87-.07,1-.22,1-1.52V179.4h-21.2a53.31,53.31,0,0,0-6.66.36l-.74-2.68a37.7,37.7,0,0,0,7.4.65h21.2v-1.37c0-6.87,0-6.87-.41-10.49,2.09.36,3.17.65,4.38.94a78.39,78.39,0,0,0,10.76-12.88H121.85a50.71,50.71,0,0,0-6.32.36l-.61-2.75a35.55,35.55,0,0,0,7.41.72Z"/><path class="cls-1" d="M74.77,66.14a9.08,9.08,0,0,1,6.13-.68L69.11,39.57,56.78,56.76l9.15,20.08a17.43,17.43,0,0,1,3.29-6.25A15.61,15.61,0,0,1,74.77,66.14Z"/><path class="cls-1" d="M79.77,127a18.7,18.7,0,0,1-3.21,2.88H183.72L120.3,41.52q2.22,6.94,1.06,18.18l-1.1.5c0-1.45-.06-3.14-.1-5.06s-.1-3.64-.22-5.16a34.15,34.15,0,0,0-.65-4.41,21.08,21.08,0,0,0-1.34-4,17.7,17.7,0,0,0-4-5.47A22.36,22.36,0,0,0,108,32a20.63,20.63,0,0,0-6.88-1.9,14.28,14.28,0,0,0-6.6.88l18.13,39.79a10.41,10.41,0,0,1,.67,7,14.79,14.79,0,0,1-3.48,6.5,17.73,17.73,0,0,1-5.79,4.35,10.84,10.84,0,0,1-3.08.91l5.55,12.18a10,10,0,0,1,.56,6.84,15.32,15.32,0,0,1-3.49,6.51,17.11,17.11,0,0,1-5.69,4.34,8.67,8.67,0,0,1-5.64.69,6.34,6.34,0,0,1-4.21-3.34,10.62,10.62,0,0,1-.34-6.81,17.52,17.52,0,0,1,3.46-6.77,15.51,15.51,0,0,1,5.54-4.46,9.12,9.12,0,0,1,6.14-.69L99,89.57a7,7,0,0,1-.78-.13,5.78,5.78,0,0,1-4.09-3.57,10.12,10.12,0,0,1-.58-6.74c.07-.31.18-.61.27-.92L78.1,43.69l1.65-.75,15,32.9a17.37,17.37,0,0,1,2.12-3.29,15.27,15.27,0,0,1,5.43-4.32c2.73-1.25,4.94-1.6,6.62-1.07L92.54,31.22,85.77,16.35,70.32,37.88,84.57,69.14A10.06,10.06,0,0,1,85.14,76a15.51,15.51,0,0,1-3.5,6.51A17.11,17.11,0,0,1,76,86.84a8.9,8.9,0,0,1-5.11.79l11.87,26a10.12,10.12,0,0,1,.56,6.85A15.72,15.72,0,0,1,79.77,127Z"/><path class="cls-1" d="M90.53,18A23,23,0,0,0,95,21.59a69.57,69.57,0,0,0,6.37,3.13c2.76,1.22,5,2.28,6.77,3.18a30,30,0,0,1,4.37,2.79L94,4.87l-6.68,9.31A30.91,30.91,0,0,0,90.53,18Z"/><path class="cls-1" d="M64.24,128.71a10.58,10.58,0,0,1-.34-6.82,17.47,17.47,0,0,1,3.45-6.78,15.63,15.63,0,0,1,5.55-4.45A9,9,0,0,1,79,110L68.45,86.77a6.9,6.9,0,0,1-2.35-2.59A9.93,9.93,0,0,1,65.37,80L55.55,58.47l-5.79,8.06,13.64,30a10,10,0,0,1,.58,6.85,15.57,15.57,0,0,1-3.5,6.51,17.15,17.15,0,0,1-5.69,4.34,8.66,8.66,0,0,1-5.64.69,6.34,6.34,0,0,1-4.21-3.33,10.71,10.71,0,0,1-.33-6.84,17.57,17.57,0,0,1,3.45-6.77,15.58,15.58,0,0,1,5.54-4.45,9.11,9.11,0,0,1,6.14-.68L48.55,68.23,4.29,129.91H65A8,8,0,0,1,64.24,128.71Z"/><polygon class="cls-1" points="94.5 223.02 94.5 142.55 93.51 142.55 93.51 223.02 13.05 223.02 13.05 224 93.51 224 93.51 304.47 94.5 304.47 94.5 224 174.97 224 174.97 223.02 94.5 223.02"/><path class="cls-1" d="M23.13,329.15c0,2.29,0,2.58,1.44,2.73l.59.06a.44.44,0,0,1,0,.55c-1.25,0-2-.07-2.84-.07s-1.7,0-2.66.07a.43.43,0,0,1-.05-.55l.46-.06c1.27-.18,1.31-.44,1.31-2.73v-8.06c0-1.85,0-2.22-1-2.33l-.79-.09a.36.36,0,0,1,0-.54,33,33,0,0,1,4.32-.18,7.94,7.94,0,0,1,4.2.87,3.79,3.79,0,0,1,1.74,3.28,3.69,3.69,0,0,1-2.18,3.47,7.34,7.34,0,0,1-3,.65c-.16-.06-.16-.39,0-.43,2.35-.44,3.2-1.77,3.2-3.67a3.21,3.21,0,0,0-3.51-3.49c-1.16,0-1.18.08-1.18.78Z"/><path class="cls-1" d="M48.4,325.37c-1,0-1.09.05-1.09.7v3.08c0,2.29.11,2.6,1.33,2.73l.63.06c.13.09.09.48,0,.55-1.18,0-1.92-.07-2.77-.07s-1.68.05-2.53.07a.42.42,0,0,1,0-.55l.37-.06c1.23-.22,1.27-.44,1.27-2.73v-7.86c0-2.29-.15-2.66-1.29-2.75l-.57,0c-.13-.09-.08-.48.05-.55,1.07,0,1.81.07,2.75.07s1.59,0,2.53-.07c.13.07.17.46,0,.55l-.41,0c-1.27.13-1.31.46-1.31,2.75v2.51c0,.68,0,.7,1.09.7h6.24c1,0,1.1,0,1.1-.7v-2.51c0-2.29-.05-2.62-1.34-2.75l-.41,0c-.13-.09-.09-.48,0-.55,1,0,1.75.07,2.64.07s1.6,0,2.58-.07c.13.07.18.46,0,.55l-.45,0c-1.27.13-1.31.46-1.31,2.75v7.86c0,2.29,0,2.58,1.31,2.73l.52.06c.13.09.09.48,0,.55-1,0-1.79-.07-2.65-.07s-1.68,0-2.64.07a.43.43,0,0,1,0-.55l.41-.06c1.34-.22,1.34-.44,1.34-2.73v-3.08c0-.65-.05-.7-1.1-.7Z"/><path class="cls-1" d="M71.26,325.37a7.54,7.54,0,0,1,7.77-7.7,7.18,7.18,0,0,1,7.58,7.48A7.45,7.45,0,0,1,79,332.77,7.35,7.35,0,0,1,71.26,325.37Zm13.16.46c0-3.6-1.59-7.49-5.76-7.49-2.27,0-5.22,1.55-5.22,6.33,0,3.24,1.58,7.43,5.88,7.43C81.94,332.1,84.42,330.13,84.42,325.83Z"/><path class="cls-1" d="M111.85,328.71c0,.66,0,3.26.06,3.82a.38.38,0,0,1-.41.24c-.26-.37-.9-1.13-2.8-3.29l-5.06-5.77c-.59-.67-2.07-2.46-2.53-2.94h0a5.87,5.87,0,0,0-.11,1.42v4.75c0,1,0,3.87.4,4.52.13.24.56.37,1.11.42l.68.06a.4.4,0,0,1,0,.55c-1,0-1.74-.07-2.55-.07s-1.51,0-2.27.07a.4.4,0,0,1,0-.55l.58-.06c.51-.07.86-.2,1-.44a20.77,20.77,0,0,0,.29-4.5v-6.3a2,2,0,0,0-.48-1.58,2.45,2.45,0,0,0-1.35-.52l-.38,0a.38.38,0,0,1,.05-.55c.91.07,2.07.07,2.46.07a7.75,7.75,0,0,0,1-.07c.44,1.11,3,4,3.73,4.8l2.12,2.38c1.51,1.68,2.58,2.91,3.6,3.95h.05a2.35,2.35,0,0,0,.08-.91V323.5c0-1,0-3.87-.43-4.52-.14-.2-.48-.33-1.36-.44l-.37,0c-.15-.13-.13-.48,0-.55,1,0,1.74.07,2.57.07s1.51,0,2.25-.07a.39.39,0,0,1,0,.55l-.3,0c-.7.11-1.14.28-1.22.46-.38.78-.33,3.49-.33,4.5Z"/><path class="cls-1" d="M125.31,325.37a7.54,7.54,0,0,1,7.77-7.7,7.18,7.18,0,0,1,7.57,7.48,7.45,7.45,0,0,1-7.57,7.62A7.35,7.35,0,0,1,125.31,325.37Zm13.16.46c0-3.6-1.59-7.49-5.76-7.49-2.27,0-5.22,1.55-5.22,6.33,0,3.24,1.57,7.43,5.87,7.43C136,332.1,138.47,330.13,138.47,325.83Z"/><path class="cls-1" d="M165.92,328.71c0,.66,0,3.26.07,3.82a.41.41,0,0,1-.42.24c-.26-.37-.89-1.13-2.79-3.29l-5.07-5.77c-.59-.67-2.07-2.46-2.53-2.94h0a5.39,5.39,0,0,0-.11,1.42v4.75c0,1,0,3.87.39,4.52.13.24.57.37,1.11.42l.68.06a.41.41,0,0,1,0,.55c-1,0-1.75-.07-2.56-.07s-1.5,0-2.27.07a.41.41,0,0,1,0-.55l.59-.06c.5-.07.85-.2,1-.44a20.8,20.8,0,0,0,.28-4.5v-6.3a2,2,0,0,0-.48-1.58,2.42,2.42,0,0,0-1.35-.52l-.37,0a.39.39,0,0,1,0-.55c.92.07,2.08.07,2.47.07a7.47,7.47,0,0,0,1-.07c.44,1.11,3,4,3.74,4.8l2.11,2.38c1.51,1.68,2.58,2.91,3.61,3.95h0a2.1,2.1,0,0,0,.09-.91V323.5c0-1,0-3.87-.44-4.52-.13-.2-.48-.33-1.35-.44l-.37,0c-.16-.13-.14-.48,0-.55,1,0,1.75.07,2.58.07s1.5,0,2.24-.07a.39.39,0,0,1,.05.55l-.31,0c-.7.11-1.13.28-1.22.46-.37.78-.33,3.49-.33,4.5Z"/><path class="cls-1" d="M27.43,354c-.15-.48-.24-.55-.89-.55h-3.3c-.55,0-.68.07-.83.53l-.76,2.29a8.14,8.14,0,0,0-.48,1.81c0,.26.11.4.63.44l.72.06a.36.36,0,0,1,0,.55c-.57,0-1.25,0-2.27-.06-.73,0-1.51,0-2.1.06a.44.44,0,0,1,0-.55l.72-.06a1.45,1.45,0,0,0,1.31-1.07c.39-1,1-2.42,1.92-4.87l2.22-5.89a3.19,3.19,0,0,0,.38-1.55,2.53,2.53,0,0,0,1.13-.83.32.32,0,0,1,.33.19c.28,1,.63,2,1,2.93l3,8.78c.63,1.87.92,2.2,1.86,2.31l.58.06c.16.11.11.46,0,.55-.89,0-1.66-.06-2.64-.06s-1.88,0-2.51.06a.38.38,0,0,1,0-.55l.63-.06c.46,0,.77-.18.77-.39a4.31,4.31,0,0,0-.29-1.16ZM23.11,352c-.18.5-.15.52.46.52h2.68c.64,0,.68-.09.48-.68l-1.18-3.55a13,13,0,0,0-.5-1.38h0a11.34,11.34,0,0,0-.53,1.29Z"/><path class="cls-1" d="M89,347.92c0-2.07-.06-2.44-1-2.55l-.7-.09a.36.36,0,0,1,0-.54c1.22-.11,2.73-.18,4.87-.18a7.65,7.65,0,0,1,3.64.66,3.23,3.23,0,0,1,1.81,3,4,4,0,0,1-2.73,3.65c-.1.13,0,.35.11.52,1.75,2.82,2.91,4.56,4.39,5.81a2.58,2.58,0,0,0,1.51.61.19.19,0,0,1,0,.31,3.65,3.65,0,0,1-1,.11c-1.86,0-3-.55-4.52-2.76-.57-.8-1.46-2.31-2.14-3.29a1.56,1.56,0,0,0-1.55-.7c-1,0-1,0-1,.48v2.75c0,2.29,0,2.55,1.31,2.73l.46.06a.43.43,0,0,1,0,.55c-1,0-1.73-.06-2.6-.06s-1.7,0-2.73.06c-.13-.06-.17-.39,0-.55l.54-.06c1.27-.15,1.31-.44,1.31-2.73Zm1.79,3.13a1.63,1.63,0,0,0,.07.72,4.37,4.37,0,0,0,1.51.1,3.63,3.63,0,0,0,2.24-.56,3.15,3.15,0,0,0,1.1-2.71,3.22,3.22,0,0,0-3.5-3.36c-1.35,0-1.42.09-1.42.7Z"/><path class="cls-1" d="M161.08,355.76c0,2.29,0,2.62,1.31,2.73l.7.06a.43.43,0,0,1-.05.55c-1.24,0-2-.06-2.86-.06s-1.63,0-3,.06a.39.39,0,0,1,0-.55l.79-.06c1.24-.11,1.35-.44,1.35-2.73V346c0-.67,0-.7-.66-.7h-1.2a4.46,4.46,0,0,0-2.68.55,4,4,0,0,0-1,1.51.42.42,0,0,1-.57-.16A22.52,22.52,0,0,0,154,344c.06,0,.35-.07.41,0,.13.7.85.68,1.86.68h8.84c1.18,0,1.38-.05,1.7-.61.11,0,.35,0,.4.06a13,13,0,0,0-.33,3.32.42.42,0,0,1-.57,0,2.72,2.72,0,0,0-.55-1.59,4.35,4.35,0,0,0-2.53-.55h-1.55c-.65,0-.63,0-.63.75Z"/></g></svg>