<?xml version="1.0" encoding="utf-8"?>
<!-- Generator: Adobe Illustrator 24.3.0, SVG Export Plug-In . SVG Version: 6.00 Build 0)  -->
<svg version="1.1" id="Layer_1" xmlns="http://www.w3.org/2000/svg" xmlns:xlink="http://www.w3.org/1999/xlink" x="0px" y="0px"
	 viewBox="0 0 512 512" style="enable-background:new 0 0 512 512;" xml:space="preserve">
<g>
	<g>
		<g>
			<path d="M350.4,218.9h-109c-5.2,0-9.3,4.2-9.3,9.3v8.7c0,17.4-6.8,33.9-19.1,46.3c-2.4,2.4-4.9,4.6-7.6,6.6l-2.4,53.8h161.7
				L350.4,218.9z"/>
		</g>
	</g>
	<g>
		<g>
			<path d="M449.6,218.9h-4.9H339.4l5.7,124.7H449c9.2,0,16.3-8.1,15.1-17.3L449.6,218.9z"/>
		</g>
	</g>
	<g>
		<g>
			<path d="M166.9,302.8c-0.3,0-0.6,0-0.9,0c-17.8,0-34.5-7.1-47-20c-12.2-12.6-19-29.2-19-46.6v-8c0-5.2-4.2-9.3-9.3-9.3H67.3h-4.9
				L46.7,335.3c-0.6,4.4,2.8,8.2,7.2,8.2h153.8l-2.3-53.8C204.8,289.8,191.6,302.1,166.9,302.8z"/>
		</g>
	</g>
</g>
<g>
	<g>
		<path d="M16.8,374.6c-8.9,0-14.7,9.3-10.8,17.3c12.7,25.9,39.3,43.9,70.1,43.9h359.8c30.8,0,57.4-17.9,70.1-43.9
			c3.9-8-1.9-17.3-10.8-17.3H16.8z"/>
	</g>
</g>
<g>
	<g>
		<path d="M441.8,171c-4.8-46.9-44-79.7-95.5-79.7H165.7C114.2,91.3,75,124,70.2,171l-3,21.9h44.8c13.2,0,24,10.7,24,24v24.3
			c0,16.6,13.5,30.7,30,30.7c0.1,0,0.3,0,0.4,0c16.3-0.2,29.6-13.6,29.6-30v-25c0-13.2,10.7-24,24-24h224.7L441.8,171z"/>
	</g>
</g>
</svg>
